<svg viewBox="0 0 220 55.94" xmlns="http://www.w3.org/2000/svg"><path d="m68 28.2a6.38 6.38 0 0 0 1.56 4.26 5.19 5.19 0 0 0 3.93 1.48 5.74 5.74 0 0 0 3-.77 5.65 5.65 0 0 0 2.08-2.3l5.4 1.73a9.81 9.81 0 0 1 -4.26 4.78 13.71 13.71 0 0 1 -7 1.71 11.57 11.57 0 0 1 -8.64-3.32 12 12 0 0 1 -3.27-8.81 12 12 0 0 1 3.26-8.8 11.59 11.59 0 0 1 8.65-3.31 11.14 11.14 0 0 1 8.64 3.5q3.2 3.5 3.2 9.51v.36zm0-3.92h9.18a4.64 4.64 0 0 0 -1.39-3.19 4.51 4.51 0 0 0 -3.23-1.18 4.41 4.41 0 0 0 -3.19 1.18 4.69 4.69 0 0 0 -1.37 3.19z" fill="#57312b"/><path d="m85.77 11h-3v-4.94h9.93v27.28h3.21v5.08h-13.12v-5.08h3z" fill="#57312b"/><path d="m110.89 34.94a9.32 9.32 0 0 1 -3.21 2.62 9.17 9.17 0 0 1 -4 .87 8.86 8.86 0 0 1 -7.07-3.05q-2.63-3.05-2.63-8.29a12.43 12.43 0 0 1 2.86-8.35 9 9 0 0 1 7.09-3.36 8.68 8.68 0 0 1 3.85.88 11.33 11.33 0 0 1 3.42 2.68v-3.57h9.66v4.94h-3v15.22a17.2 17.2 0 0 1 -.48 4.61 7.36 7.36 0 0 1 -1.64 2.86 10 10 0 0 1 -4.21 2.62 18.54 18.54 0 0 1 -6.06.91 20.42 20.42 0 0 1 -5.47-.71 14.31 14.31 0 0 1 -4.51-2.09l3.46-4a19.18 19.18 0 0 0 3.45 1.27 12.85 12.85 0 0 0 3.07.4 6 6 0 0 0 4.16-1.23 4.83 4.83 0 0 0 1.37-3.75c0-.17 0-.35 0-.56zm-4.89-1.1a4.21 4.21 0 0 0 3.58-1.79 8.15 8.15 0 0 0 1.32-4.93 8 8 0 0 0 -1.31-4.88 4.23 4.23 0 0 0 -3.59-1.77 4.28 4.28 0 0 0 -3.62 1.77 8 8 0 0 0 -1.32 4.88 8.14 8.14 0 0 0 1.32 4.93 4.26 4.26 0 0 0 3.62 1.79z" fill="#57312b"/><path d="m126.07 28.2a6.38 6.38 0 0 0 1.56 4.26 5.19 5.19 0 0 0 3.93 1.48 5.74 5.74 0 0 0 3-.77 5.65 5.65 0 0 0 2.08-2.3l5.4 1.73a9.81 9.81 0 0 1 -4.26 4.78 13.71 13.71 0 0 1 -7 1.71 11.57 11.57 0 0 1 -8.64-3.32 12 12 0 0 1 -3.27-8.81 12 12 0 0 1 3.26-8.8 11.59 11.59 0 0 1 8.65-3.31 11.14 11.14 0 0 1 8.64 3.5q3.2 3.5 3.2 9.51v.36zm0-3.92h9.18a4.64 4.64 0 0 0 -1.39-3.19 4.51 4.51 0 0 0 -3.23-1.18 4.41 4.41 0 0 0 -3.19 1.18 4.69 4.69 0 0 0 -1.33 3.19z" fill="#57312b"/><path d="m141.08 38.42v-5.08h3v-13h-3v-5h9.92v2.3a16.54 16.54 0 0 1 3.5-1.75 10.08 10.08 0 0 1 3.27-.55 5.7 5.7 0 0 1 4.67 2 8.76 8.76 0 0 1 1.62 5.66v10.34h3.28v5.08h-10.23v-13.66a5.45 5.45 0 0 0 -.58-2.91 2.15 2.15 0 0 0 -1.92-.87 4.62 4.62 0 0 0 -1.82.39 6.37 6.37 0 0 0 -1.73 1.12v10.85h3.51v5.08z" fill="#57312b"/><path d="m173.94 30.22a5.07 5.07 0 0 0 .41 2.51 1.68 1.68 0 0 0 1.5.61 4.22 4.22 0 0 0 1.08-.15 7 7 0 0 0 1.22-.47v5.12a10.58 10.58 0 0 1 -2.4.92 10.94 10.94 0 0 1 -2.63.31q-3.39 0-4.76-1.43t-1.36-5.1v-12.22h-2.64v-4.95h2.64v-2.6l6.95-5.88v8.47h4.21v4.94h-4.21z" fill="#57312b"/><path d="m200.82 26.94a11.82 11.82 0 0 1 -3.38 8.79 13.34 13.34 0 0 1 -17.64 0 11.9 11.9 0 0 1 -3.32-8.82 11.88 11.88 0 0 1 3.32-8.79 13.39 13.39 0 0 1 17.66 0 11.82 11.82 0 0 1 3.36 8.82zm-12.21 6.49a4.51 4.51 0 0 0 3.76-1.74 7.57 7.57 0 0 0 1.37-4.79 7.35 7.35 0 0 0 -1.37-4.71 5 5 0 0 0 -7.5 0 7.31 7.31 0 0 0 -1.38 4.71 7.55 7.55 0 0 0 1.38 4.78 4.51 4.51 0 0 0 3.74 1.75z" fill="#57312b"/><path d="m200.41 38.42v-8.11h5.42v.09a3.43 3.43 0 0 0 1.25 2.8 5.28 5.28 0 0 0 3.44 1 3.87 3.87 0 0 0 2.33-.63 2 2 0 0 0 .85-1.67q0-1.59-3.74-2.39l-.55-.11-4-.89a7.38 7.38 0 0 1 -4.14-2.28 6.21 6.21 0 0 1 -1.43-4.23 6.73 6.73 0 0 1 2.16-5.19 8.25 8.25 0 0 1 5.76-2 10.9 10.9 0 0 1 2.9.4 13.43 13.43 0 0 1 2.93 1.22v-1.06h5.17v6.63h-5.17a4.7 4.7 0 0 0 -1.95-1.9 6.19 6.19 0 0 0 -2.9-.65 3.36 3.36 0 0 0 -1.91.48 1.47 1.47 0 0 0 -.71 1.28 1.35 1.35 0 0 0 .69 1.21 8.57 8.57 0 0 0 2.65.8l3.78.75a9 9 0 0 1 5.08 2.45 6.89 6.89 0 0 1 1.68 4.87 7.39 7.39 0 0 1 -2.29 5.63 8.31 8.31 0 0 1 -6 2.16 11.5 11.5 0 0 1 -2.95-.39 14.61 14.61 0 0 1 -3-1.16v.89z" fill="#57312b"/><path d="m50.81 2.7a8.25 8.25 0 0 1 .9 1.47 9.57 9.57 0 0 1 .62 1.66 10.88 10.88 0 0 1 .33 1.8 11.65 11.65 0 0 1 0 1.89 11.65 11.65 0 0 0 0-1.89 10.88 10.88 0 0 0 -.33-1.8 9.57 9.57 0 0 0 -.62-1.66 8.25 8.25 0 0 0 -.9-1.47z" fill="#fc5300"/><path d="m47.61 43.95a6.84 6.84 0 0 1 -.09 2 6.75 6.75 0 0 1 -.64 1.84 5.86 5.86 0 0 1 -1.11 1.51 4.68 4.68 0 0 1 -1.51 1 4.68 4.68 0 0 0 1.51-1 5.86 5.86 0 0 0 1.11-1.51 6.75 6.75 0 0 0 .64-1.84 6.84 6.84 0 0 0 .09-2z" fill="#fc5300"/><path d="m5.59 2.8 7.16-.5 14.12-1 12.44-.88 5.76-.42-5.76.42-12.43.88-14.12 1z" fill="#fc5300"/><path d="m50.81 2.7a8.25 8.25 0 0 1 .9 1.47 9.57 9.57 0 0 1 .62 1.66 10.88 10.88 0 0 1 .33 1.8 11.65 11.65 0 0 1 0 1.89l-1.51 18.08-26.15 6.87.94 4.82 24.87-7.29-.81 11.09-2.37.86a6.84 6.84 0 0 1 -.09 2 6.75 6.75 0 0 1 -.64 1.84 5.86 5.86 0 0 1 -1.11 1.51 4.68 4.68 0 0 1 -1.51 1 3.78 3.78 0 0 1 -1.68.27 3.61 3.61 0 0 1 -1.6-.51 4.23 4.23 0 0 1 -1.28-1.18 5.36 5.36 0 0 1 -.83-1.76l-4 1.45a7 7 0 0 1 -.12 2.17 7.34 7.34 0 0 1 -.76 2 6.8 6.8 0 0 1 -1.32 1.68 5.8 5.8 0 0 1 -1.69 1.16 4.85 4.85 0 0 1 -2 .35 4.41 4.41 0 0 1 -1.84-.48 4.67 4.67 0 0 1 -1.51-1.24 5.36 5.36 0 0 1 -1-1.89 10.44 10.44 0 0 1 -3.78.61 6.65 6.65 0 0 1 -3.18-.93 7.13 7.13 0 0 1 -2.42-2.46 12.31 12.31 0 0 1 -1.49-4l-6.06-29.37a7 7 0 0 1 -2.5-.35 7.61 7.61 0 0 1 -2.22-1.21 7.78 7.78 0 0 1 -1.78-1.92 7.34 7.34 0 0 1 -1-2.48 6.52 6.52 0 0 1 0-2.73 6 6 0 0 1 1-2.32 5.83 5.83 0 0 1 1.85-1.64 6.18 6.18 0 0 1 2.52-.72l7.16-.5 14.12-1 12.44-.88 5.76-.42a6.64 6.64 0 0 1 1.67.09 6.28 6.28 0 0 1 1.53.51 6.61 6.61 0 0 1 1.36.87 7.47 7.47 0 0 1 1.18 1.23zm-7.33 16.51.32-8.07-22.74 3.24 1.73 8.85 20.68-4" fill="#fc5300"/><g fill="#fff" opacity=".13"><path d="m19.8 13.41 25.2-3.98-.77 10.64-22.72 5.38zm23.67 5.81.32-8.07-22.73 3.23 1.73 8.85 20.68-4"/><path d="m50.81 2.7a8.25 8.25 0 0 1 .9 1.47 9.57 9.57 0 0 1 .62 1.66 10.88 10.88 0 0 1 .33 1.8 11.65 11.65 0 0 1 0 1.89 11.65 11.65 0 0 0 0-1.89 10.88 10.88 0 0 0 -.33-1.8 9.57 9.57 0 0 0 -.62-1.66 8.25 8.25 0 0 0 -.9-1.47z"/><path d="m47.61 43.95a6.84 6.84 0 0 1 -.09 2 6.75 6.75 0 0 1 -.64 1.84 5.86 5.86 0 0 1 -1.11 1.51 4.68 4.68 0 0 1 -1.51 1 4.68 4.68 0 0 0 1.51-1 5.86 5.86 0 0 0 1.11-1.51 6.75 6.75 0 0 0 .64-1.84 6.84 6.84 0 0 0 .09-2z"/><path d="m39.63 46.34a4.58 4.58 0 0 0 .61 1.61 3.6 3.6 0 0 0 1.06 1.05 3 3 0 0 0 1.33.49 3.05 3.05 0 0 0 1.45-.2 3.85 3.85 0 0 0 1.3-.87 4.88 4.88 0 0 0 .93-1.34 5.63 5.63 0 0 0 .47-3.38 5.63 5.63 0 0 1 -.47 3.38 4.88 4.88 0 0 1 -.93 1.34 3.85 3.85 0 0 1 -1.3.87 3.05 3.05 0 0 1 -1.45.2 3 3 0 0 1 -1.33-.49 3.6 3.6 0 0 1 -1.05-1.1 4.58 4.58 0 0 1 -.62-1.56z"/><path d="m5.59 2.8 7.16-.5 14.12-1 12.44-.88 5.76-.42-5.76.42-12.43.88-14.12 1z"/><path d="m50.81 2.7a8.25 8.25 0 0 1 .9 1.47 9.57 9.57 0 0 1 .62 1.66 10.88 10.88 0 0 1 .33 1.8 11.65 11.65 0 0 1 0 1.89l-1.51 18.08-26.15 6.87.94 4.82 24.87-7.29-.81 11.09-2.37.86a6.84 6.84 0 0 1 -.09 2 6.75 6.75 0 0 1 -.64 1.84 5.86 5.86 0 0 1 -1.11 1.51 4.68 4.68 0 0 1 -1.51 1 3.78 3.78 0 0 1 -1.68.27 3.61 3.61 0 0 1 -1.6-.51 4.23 4.23 0 0 1 -1.28-1.18 5.36 5.36 0 0 1 -.83-1.76l-4 1.45a7 7 0 0 1 -.12 2.17 7.34 7.34 0 0 1 -.76 2 6.8 6.8 0 0 1 -1.32 1.68 5.8 5.8 0 0 1 -1.69 1.16 4.85 4.85 0 0 1 -2 .35 4.41 4.41 0 0 1 -1.84-.48 4.67 4.67 0 0 1 -1.51-1.24 5.36 5.36 0 0 1 -1-1.89 10.44 10.44 0 0 1 -3.78.61 6.65 6.65 0 0 1 -3.18-.93 7.13 7.13 0 0 1 -2.42-2.46 12.31 12.31 0 0 1 -1.49-4l-6.06-29.37a7 7 0 0 1 -2.5-.35 7.61 7.61 0 0 1 -2.22-1.21 7.78 7.78 0 0 1 -1.78-1.92 7.34 7.34 0 0 1 -1-2.48 6.52 6.52 0 0 1 0-2.73 6 6 0 0 1 1-2.32 5.83 5.83 0 0 1 1.85-1.64 6.18 6.18 0 0 1 2.52-.72l7.16-.5 14.12-1 12.44-.88 5.76-.42a6.64 6.64 0 0 1 1.67.09 6.28 6.28 0 0 1 1.53.51 6.61 6.61 0 0 1 1.36.87 7.47 7.47 0 0 1 1.18 1.23zm1.19 6.43a10.23 10.23 0 0 0 -.05-1.62 9.53 9.53 0 0 0 -.3-1.51 8.37 8.37 0 0 0 -.54-1.42 7.3 7.3 0 0 0 -.77-1.25 6.45 6.45 0 0 0 -.7-.78 6.14 6.14 0 0 0 -.79-.63 5.69 5.69 0 0 0 -.85-.49 5.61 5.61 0 0 0 -1-.31l-3.57 6.35-6.31-5.85h-.59-.6-.61-.63l-4.42 7.32-7.33-6.23-.71.05-.71.05-.7.06-.7.05-5.36 7.94-8.86-6.86a5.18 5.18 0 0 0 -2.08.6 4.79 4.79 0 0 0 -1.55 1.4 4.89 4.89 0 0 0 -.85 1.89 5.35 5.35 0 0 0 0 2.22 6 6 0 0 0 .9 2.12 6.34 6.34 0 0 0 1.58 1.58 6.17 6.17 0 0 0 2 1 5.55 5.55 0 0 0 2.18.15l.58-.08 8.82 6.38-5.68 8.84.33 1.58 8.54 5.59-5.44 9.24a9.77 9.77 0 0 0 1.28 2.78 5.86 5.86 0 0 0 1.85 1.71 5.56 5.56 0 0 0 2.37.73 8.57 8.57 0 0 0 2.82-.28l5-9 7.21 4.71 2.19-.78 4.19-8.21 6.16 4.53 1.05-.38v-8.41l-24.2 6.75-2-6.75 5.55-8.73 7.14 5.37 2.78-.71 4.11-7.63 6 5 1.69-.43.63-5.78-4.31-7.17z"/></g><g fill="#fc5300"><path d="m127.9 47.74a2.19 2.19 0 0 1 -1.37.41 2.48 2.48 0 0 1 -1-.19 2 2 0 0 1 -.72-.52 2.26 2.26 0 0 1 -.44-.81 4 4 0 0 1 -.16-1 2.93 2.93 0 0 1 .17-1 2.43 2.43 0 0 1 .47-.8 2.15 2.15 0 0 1 .72-.52 2.2 2.2 0 0 1 .91-.19 2 2 0 0 1 1.07.27 2.12 2.12 0 0 1 .68.68 2.67 2.67 0 0 1 .36.9 3.78 3.78 0 0 1 .08.93h-3.67a1.91 1.91 0 0 0 .07.6 1.37 1.37 0 0 0 .27.51 1.35 1.35 0 0 0 .48.35 1.66 1.66 0 0 0 .68.13 1.38 1.38 0 0 0 .83-.23 1.13 1.13 0 0 0 .43-.71h.79a1.93 1.93 0 0 1 -.65 1.19zm-.19-3.11a1.36 1.36 0 0 0 -.72-.73 1.37 1.37 0 0 0 -.55-.11 1.4 1.4 0 0 0 -.56.11 1.28 1.28 0 0 0 -.43.3 1.39 1.39 0 0 0 -.28.44 1.64 1.64 0 0 0 -.12.53h2.78a1.67 1.67 0 0 0 -.13-.54z"/><path d="m132.39 44.05a1.21 1.21 0 0 0 -.81-.25 1.49 1.49 0 0 0 -.72.16 1.29 1.29 0 0 0 -.46.42 1.79 1.79 0 0 0 -.25.61 3.32 3.32 0 0 0 -.07.71 2.69 2.69 0 0 0 .08.66 1.75 1.75 0 0 0 .25.57 1.26 1.26 0 0 0 .44.4 1.32 1.32 0 0 0 .65.15 1.3 1.3 0 0 0 .92-.31 1.4 1.4 0 0 0 .41-.87h.81a2.23 2.23 0 0 1 -.67 1.39 2.1 2.1 0 0 1 -1.47.49 2.53 2.53 0 0 1 -1-.18 1.89 1.89 0 0 1 -.71-.51 2.17 2.17 0 0 1 -.43-.78 3.24 3.24 0 0 1 -.15-1 3.54 3.54 0 0 1 .14-1 2.35 2.35 0 0 1 .43-.82 2 2 0 0 1 .72-.55 2.35 2.35 0 0 1 1-.2 2.9 2.9 0 0 1 .77.1 1.87 1.87 0 0 1 .64.3 1.67 1.67 0 0 1 .45.52 1.93 1.93 0 0 1 .22.74h-.82a1.21 1.21 0 0 0 -.37-.75z"/><path d="m134.42 44.64a2.27 2.27 0 0 1 .45-.81 2.12 2.12 0 0 1 .74-.54 2.72 2.72 0 0 1 2 0 2.14 2.14 0 0 1 .74.54 2.29 2.29 0 0 1 .45.81 3.26 3.26 0 0 1 .15 1 3.22 3.22 0 0 1 -.15 1 2.28 2.28 0 0 1 -.45.8 2.07 2.07 0 0 1 -.74.53 2.77 2.77 0 0 1 -2 0 2.05 2.05 0 0 1 -.74-.53 2.26 2.26 0 0 1 -.45-.8 3.19 3.19 0 0 1 -.15-1 3.22 3.22 0 0 1 .15-1zm.81 1.78a1.64 1.64 0 0 0 .32.57 1.37 1.37 0 0 0 .48.35 1.46 1.46 0 0 0 1.17 0 1.39 1.39 0 0 0 .48-.35 1.64 1.64 0 0 0 .32-.57 2.68 2.68 0 0 0 0-1.56 1.69 1.69 0 0 0 -.32-.58 1.39 1.39 0 0 0 -.48-.36 1.47 1.47 0 0 0 -1.17 0 1.37 1.37 0 0 0 -.48.36 1.69 1.69 0 0 0 -.32.58 2.68 2.68 0 0 0 0 1.56z"/><path d="m140.65 43.21v.71a1.89 1.89 0 0 1 2.38-.64 1.05 1.05 0 0 1 .52.64 1.69 1.69 0 0 1 .64-.61 1.82 1.82 0 0 1 .88-.22 2.55 2.55 0 0 1 .66.08 1.38 1.38 0 0 1 .51.25 1.14 1.14 0 0 1 .33.44 1.59 1.59 0 0 1 .12.64v3.55h-.8v-3.18a2.22 2.22 0 0 0 0-.42.86.86 0 0 0 -.14-.34.7.7 0 0 0 -.29-.23 1.13 1.13 0 0 0 -.47-.08 1.25 1.25 0 0 0 -.93.34 1.21 1.21 0 0 0 -.34.9v3h-.8v-3.17a2 2 0 0 0 0-.43.91.91 0 0 0 -.14-.34.68.68 0 0 0 -.28-.22 1.07 1.07 0 0 0 -.45-.08 1.18 1.18 0 0 0 -.59.14 1.33 1.33 0 0 0 -.4.34 1.35 1.35 0 0 0 -.23.41 1.16 1.16 0 0 0 -.07.35v3h-.8v-4.83z"/><path d="m148.64 43.21v.71a1.89 1.89 0 0 1 2.38-.64 1.05 1.05 0 0 1 .52.64 1.69 1.69 0 0 1 .64-.61 1.82 1.82 0 0 1 .88-.22 2.55 2.55 0 0 1 .66.08 1.38 1.38 0 0 1 .51.25 1.14 1.14 0 0 1 .33.44 1.59 1.59 0 0 1 .12.64v3.55h-.8v-3.18a2.22 2.22 0 0 0 0-.42.86.86 0 0 0 -.14-.34.7.7 0 0 0 -.29-.23 1.13 1.13 0 0 0 -.47-.08 1.25 1.25 0 0 0 -.93.34 1.21 1.21 0 0 0 -.34.9v3h-.8v-3.17a2 2 0 0 0 0-.43.9.9 0 0 0 -.14-.34.68.68 0 0 0 -.28-.22 1.07 1.07 0 0 0 -.45-.08 1.18 1.18 0 0 0 -.59.14 1.33 1.33 0 0 0 -.4.34 1.36 1.36 0 0 0 -.22.41 1.16 1.16 0 0 0 -.07.35v3h-.8v-4.83z"/><path d="m159.31 47.74a2.19 2.19 0 0 1 -1.37.41 2.48 2.48 0 0 1 -1-.19 2 2 0 0 1 -.72-.52 2.26 2.26 0 0 1 -.44-.81 3.94 3.94 0 0 1 -.16-1 2.93 2.93 0 0 1 .17-1 2.43 2.43 0 0 1 .47-.8 2.15 2.15 0 0 1 .72-.52 2.2 2.2 0 0 1 .91-.19 2 2 0 0 1 1.07.27 2.12 2.12 0 0 1 .68.68 2.67 2.67 0 0 1 .36.9 3.78 3.78 0 0 1 .08.93h-3.62a1.91 1.91 0 0 0 .07.6 1.37 1.37 0 0 0 .27.51 1.35 1.35 0 0 0 .48.35 1.66 1.66 0 0 0 .68.13 1.38 1.38 0 0 0 .83-.23 1.13 1.13 0 0 0 .43-.71h.78a1.93 1.93 0 0 1 -.69 1.19zm-.19-3.11a1.36 1.36 0 0 0 -.72-.73 1.37 1.37 0 0 0 -.55-.11 1.4 1.4 0 0 0 -.56.11 1.28 1.28 0 0 0 -.43.3 1.38 1.38 0 0 0 -.28.44 1.64 1.64 0 0 0 -.12.53h2.78a1.67 1.67 0 0 0 -.12-.54z"/><path d="m161.64 43.21v1a2.16 2.16 0 0 1 .71-.87 1.79 1.79 0 0 1 1.07-.26v.84a2.24 2.24 0 0 0 -.81.13 1.29 1.29 0 0 0 -.54.38 1.59 1.59 0 0 0 -.3.61 3.3 3.3 0 0 0 -.09.83v2.15h-.8v-4.81z"/><path d="m166.76 44.05a1.21 1.21 0 0 0 -.81-.25 1.49 1.49 0 0 0 -.72.16 1.29 1.29 0 0 0 -.46.42 1.79 1.79 0 0 0 -.25.61 3.32 3.32 0 0 0 -.07.71 2.69 2.69 0 0 0 .08.66 1.75 1.75 0 0 0 .25.57 1.26 1.26 0 0 0 .44.4 1.32 1.32 0 0 0 .65.15 1.3 1.3 0 0 0 .92-.31 1.4 1.4 0 0 0 .41-.87h.8a2.23 2.23 0 0 1 -.67 1.39 2.1 2.1 0 0 1 -1.47.49 2.53 2.53 0 0 1 -1-.18 1.89 1.89 0 0 1 -.71-.51 2.17 2.17 0 0 1 -.43-.78 3.24 3.24 0 0 1 -.15-1 3.54 3.54 0 0 1 .14-1 2.35 2.35 0 0 1 .43-.82 2 2 0 0 1 .72-.55 2.35 2.35 0 0 1 1-.2 2.9 2.9 0 0 1 .77.1 1.87 1.87 0 0 1 .64.3 1.67 1.67 0 0 1 .45.52 1.93 1.93 0 0 1 .22.74h-.82a1.21 1.21 0 0 0 -.36-.75z"/><path d="m172.32 47.74a2.19 2.19 0 0 1 -1.37.41 2.48 2.48 0 0 1 -1-.19 2 2 0 0 1 -.72-.52 2.26 2.26 0 0 1 -.44-.81 3.94 3.94 0 0 1 -.16-1 2.93 2.93 0 0 1 .17-1 2.43 2.43 0 0 1 .47-.8 2.15 2.15 0 0 1 .72-.52 2.2 2.2 0 0 1 .91-.19 2 2 0 0 1 1.07.27 2.12 2.12 0 0 1 .68.68 2.67 2.67 0 0 1 .36.9 3.78 3.78 0 0 1 .08.93h-3.62a1.92 1.92 0 0 0 .07.6 1.37 1.37 0 0 0 .27.51 1.35 1.35 0 0 0 .48.35 1.66 1.66 0 0 0 .68.13 1.38 1.38 0 0 0 .83-.23 1.13 1.13 0 0 0 .43-.71h.77a1.93 1.93 0 0 1 -.68 1.19zm-.19-3.11a1.36 1.36 0 0 0 -.72-.73 1.37 1.37 0 0 0 -.55-.11 1.4 1.4 0 0 0 -.56.11 1.28 1.28 0 0 0 -.43.3 1.38 1.38 0 0 0 -.28.44 1.64 1.64 0 0 0 -.12.53h2.78a1.67 1.67 0 0 0 -.12-.54z"/><path d="m177.14 47a.84.84 0 0 0 .29.29 1.33 1.33 0 0 0 .41.16 2.35 2.35 0 0 0 .47 0h.39a1.44 1.44 0 0 0 .38-.1.73.73 0 0 0 .29-.22.59.59 0 0 0 .11-.37.53.53 0 0 0 -.23-.47 2 2 0 0 0 -.59-.26q-.35-.1-.76-.18a3.91 3.91 0 0 1 -.76-.23 1.56 1.56 0 0 1 -.58-.41 1.06 1.06 0 0 1 -.23-.73 1.16 1.16 0 0 1 .16-.63 1.34 1.34 0 0 1 .42-.43 1.93 1.93 0 0 1 .58-.24 2.68 2.68 0 0 1 .64-.08 3.82 3.82 0 0 1 .76.07 1.76 1.76 0 0 1 .61.24 1.26 1.26 0 0 1 .43.47 1.79 1.79 0 0 1 .19.74h-.8a.8.8 0 0 0 -.12-.39.79.79 0 0 0 -.26-.25 1.18 1.18 0 0 0 -.35-.14 1.84 1.84 0 0 0 -.39 0h-.36a1.23 1.23 0 0 0 -.33.1.67.67 0 0 0 -.24.19.47.47 0 0 0 -.09.3.45.45 0 0 0 .14.34 1.18 1.18 0 0 0 .37.22 3.27 3.27 0 0 0 .51.15l.56.13q.3.07.59.16a1.87 1.87 0 0 1 .51.25 1.2 1.2 0 0 1 .36.39 1.15 1.15 0 0 1 .14.58 1.35 1.35 0 0 1 -.18.73 1.43 1.43 0 0 1 -.48.47 2 2 0 0 1 -.67.25 3.92 3.92 0 0 1 -.74.07 3.44 3.44 0 0 1 -.77-.08 1.89 1.89 0 0 1 -.65-.28 1.4 1.4 0 0 1 -.45-.51 1.77 1.77 0 0 1 -.19-.76h.8a.9.9 0 0 0 .11.46z"/><path d="m181.1 44.64a2.27 2.27 0 0 1 .45-.81 2.12 2.12 0 0 1 .74-.54 2.72 2.72 0 0 1 2 0 2.14 2.14 0 0 1 .74.54 2.29 2.29 0 0 1 .45.81 3.26 3.26 0 0 1 .15 1 3.22 3.22 0 0 1 -.15 1 2.28 2.28 0 0 1 -.45.8 2.07 2.07 0 0 1 -.74.53 2.77 2.77 0 0 1 -2 0 2.05 2.05 0 0 1 -.74-.53 2.26 2.26 0 0 1 -.45-.8 3.19 3.19 0 0 1 -.15-1 3.22 3.22 0 0 1 .15-1zm.81 1.78a1.64 1.64 0 0 0 .32.57 1.37 1.37 0 0 0 .48.35 1.46 1.46 0 0 0 1.17 0 1.39 1.39 0 0 0 .48-.35 1.64 1.64 0 0 0 .32-.57 2.68 2.68 0 0 0 0-1.56 1.69 1.69 0 0 0 -.32-.58 1.39 1.39 0 0 0 -.48-.36 1.47 1.47 0 0 0 -1.17 0 1.37 1.37 0 0 0 -.48.36 1.7 1.7 0 0 0 -.32.58 2.68 2.68 0 0 0 0 1.56z"/><path d="m187.43 41.36v6.69h-.8v-6.69z"/><path d="m191.93 48.05v-.77a1.63 1.63 0 0 1 -.65.66 1.93 1.93 0 0 1 -.93.21 2.18 2.18 0 0 1 -.8-.13 1.28 1.28 0 0 1 -.51-.36 1.36 1.36 0 0 1 -.28-.56 3 3 0 0 1 -.08-.72v-3.17h.8v3.28a.91.91 0 0 0 1 1 1.63 1.63 0 0 0 .63-.11 1.16 1.16 0 0 0 .44-.32 1.35 1.35 0 0 0 .27-.48 1.94 1.94 0 0 0 .09-.61v-2.76h.8v4.84z"/><path d="m195.95 43.21v.7h-1v3a.87.87 0 0 0 0 .22.23.23 0 0 0 .09.13.38.38 0 0 0 .18.06h.67v.7h-.61a2.89 2.89 0 0 1 -.53 0 .77.77 0 0 1 -.36-.15.66.66 0 0 1 -.2-.32 1.81 1.81 0 0 1 -.07-.54v-3.1h-.82v-.7h.82v-1.45h.8v1.45z"/><path d="m196.87 42.34v-1h.8v1zm.8.87v4.84h-.8v-4.84z"/><path d="m198.79 44.64a2.27 2.27 0 0 1 .45-.81 2.13 2.13 0 0 1 .74-.54 2.72 2.72 0 0 1 2 0 2.14 2.14 0 0 1 .74.54 2.29 2.29 0 0 1 .45.81 3.26 3.26 0 0 1 .15 1 3.22 3.22 0 0 1 -.15 1 2.28 2.28 0 0 1 -.45.8 2.07 2.07 0 0 1 -.72.56 2.77 2.77 0 0 1 -2 0 2.05 2.05 0 0 1 -.74-.53 2.26 2.26 0 0 1 -.45-.8 3.18 3.18 0 0 1 -.15-1 3.22 3.22 0 0 1 .13-1.03zm.81 1.78a1.64 1.64 0 0 0 .32.57 1.37 1.37 0 0 0 .48.35 1.46 1.46 0 0 0 1.17 0 1.39 1.39 0 0 0 .48-.35 1.64 1.64 0 0 0 .32-.57 2.68 2.68 0 0 0 0-1.56 1.69 1.69 0 0 0 -.32-.58 1.39 1.39 0 0 0 -.48-.36 1.47 1.47 0 0 0 -1.17 0 1.37 1.37 0 0 0 -.48.36 1.7 1.7 0 0 0 -.32.58 2.68 2.68 0 0 0 0 1.56z"/><path d="m205 43.21v.79a1.67 1.67 0 0 1 1.57-.88 2.09 2.09 0 0 1 .8.13 1.31 1.31 0 0 1 .52.37 1.35 1.35 0 0 1 .28.56 3 3 0 0 1 .08.72v3.19h-.8v-3.32a1 1 0 0 0 -.26-.71 1 1 0 0 0 -.72-.26 1.63 1.63 0 0 0 -.63.11 1.2 1.2 0 0 0 -.44.32 1.36 1.36 0 0 0 -.27.48 1.94 1.94 0 0 0 -.09.6v2.74h-.8v-4.84z"/><path d="m210.1 47a.84.84 0 0 0 .29.29 1.33 1.33 0 0 0 .41.16 2.35 2.35 0 0 0 .47 0h.39a1.44 1.44 0 0 0 .38-.1.73.73 0 0 0 .29-.22.59.59 0 0 0 .11-.37.53.53 0 0 0 -.23-.47 2 2 0 0 0 -.59-.26q-.35-.1-.76-.18a3.91 3.91 0 0 1 -.76-.23 1.56 1.56 0 0 1 -.58-.41 1.06 1.06 0 0 1 -.23-.73 1.16 1.16 0 0 1 .16-.63 1.34 1.34 0 0 1 .42-.43 1.94 1.94 0 0 1 .58-.24 2.68 2.68 0 0 1 .64-.08 3.82 3.82 0 0 1 .76.07 1.76 1.76 0 0 1 .61.24 1.26 1.26 0 0 1 .43.47 1.79 1.79 0 0 1 .19.74h-.8a.8.8 0 0 0 -.12-.39.79.79 0 0 0 -.26-.25 1.18 1.18 0 0 0 -.35-.14 1.84 1.84 0 0 0 -.39 0h-.36a1.23 1.23 0 0 0 -.33.1.67.67 0 0 0 -.24.19.47.47 0 0 0 -.09.3.45.45 0 0 0 .14.34 1.18 1.18 0 0 0 .37.22 3.27 3.27 0 0 0 .51.15l.56.13q.3.07.59.16a1.87 1.87 0 0 1 .51.25 1.2 1.2 0 0 1 .36.39 1.15 1.15 0 0 1 .14.58 1.35 1.35 0 0 1 -.18.73 1.43 1.43 0 0 1 -.48.47 2 2 0 0 1 -.67.25 3.92 3.92 0 0 1 -.74.07 3.45 3.45 0 0 1 -.77-.08 1.89 1.89 0 0 1 -.65-.28 1.41 1.41 0 0 1 -.45-.51 1.77 1.77 0 0 1 -.19-.76h.8a.9.9 0 0 0 .11.46z"/></g></svg>