<svg height="74" viewBox="0 0 375 74" width="375" xmlns="http://www.w3.org/2000/svg" xmlns:xlink="http://www.w3.org/1999/xlink"><mask id="a" fill="#fff"><path d="m.02 11.6905247c.0041464.0923472.01080795.1868346.02.2834753.103 1.156.637 2.256 1.583 3.294.95 1.045 2.012 1.7 3.227 1.978 1.196.271 2.105.123 2.705-.433l5.302-3.307v29.545c0 .836.46 1.595 1.392 2.299.909.706 2.075 1.057 3.474 1.057s2.607-.351 3.62-1.057c1.018-.704 1.528-1.463 1.528-2.299v-39.722c0-.964-.498-1.742-1.479-2.341-.982-.612-2.203-.909-3.669-.909-1.461 0-2.633.297-3.529.909l-13.407 8.404c-.46812533.43847739-.7280664 1.054094-.76700001 1.8577734l.00000001.4407514z" fill="none"/></mask><mask id="b" fill="#fff"><path d="m10.321 32.725c0 2.027.559 3.554 1.693 4.604 1.129 1.045 2.615 1.57 4.437 1.57 2.387 0 4.669-1.013 6.834-3.041 2.173-2.033 3.253-4.176 3.253-6.463v-3.51h-2.357c-2.828 0-5.141.123-6.933.378-1.792.252-3.393.92-4.811 1.994-1.41 1.076-2.116 2.572-2.116 4.468zm-10.002 1.236c0-5.073 1.89-8.601 5.658-10.591 3.779-2.002 9.247-2.996 16.413-2.996h4.148v-1.757c0-2.855-.767-5.313-2.307-7.39-1.54-2.076-3.878-3.109-7.026-3.109-2.705 0-5.087.519-7.123 1.564-2.049 1.044-3.16 1.57-3.351 1.57-1.067 0-1.932-.526-2.596-1.57-.662-1.045-.988-2.2-.988-3.467 0-1.644 1.523-3.071 4.579-4.276 3.043-1.206 6.271-1.805 9.664-1.805 6.479 0 11.271 1.755 14.388 5.272 3.111 3.522 4.676 7.904 4.676 13.162v23.841c0 .897-.46 1.668-1.375 2.342-.909.654-2.062.989-3.443.989-1.264 0-2.325-.335-3.202-.989-.883-.674-1.326-1.445-1.326-2.342v-3.325c-4.215 4.945-8.958 7.416-14.241 7.416-3.65 0-6.657-1.075-9.013-3.237-2.356-2.145-3.535-5.254-3.535-9.302z" fill="none"/></mask><mask id="c" fill="#fff"><path d="m.032 27.59v-8.552c0-5.636 1.631-10.19 4.908-13.675 3.264-3.485 8.136-5.229 14.615-5.229 4.087 0 7.517.711 10.284 2.138 2.767 1.422 4.154 3.028 4.154 4.796 0 1.082-.399 2.156-1.178 3.232-.791 1.075-1.718 1.619-2.785 1.619-.314 0-1.431-.482-3.351-1.427-1.914-.947-4.037-1.427-6.362-1.427-6.922 0-10.382 3.337-10.382 10.004v8.503c0 6.667 3.49 10.004 10.474 10.004 2.387 0 4.533-.512 6.46-1.525 1.915-1.015 3.062-1.527 3.449-1.527 1.251 0 2.276.512 3.062 1.527.785 1.013 1.171 2.094 1.171 3.225 0 1.774-1.442 3.425-4.337 4.938-2.89 1.526-6.412 2.286-10.56 2.286-6.548 0-11.45-1.723-14.714-5.185-3.277-3.448-4.908-8.028-4.908-13.725z" fill="none"/></mask><mask id="d" fill="#fff"><path d="m.822 69.409v-65.262c0-.953.435-1.725 1.32-2.324.883-.606 2.037-.908 3.491-.908 1.441 0 2.656.302 3.626.908.982.599 1.46 1.371 1.46 2.324v42.274l19.721-18.242c.565-.569 1.258-.86 2.074-.86 1.068 0 2.141.514 3.209 1.527 1.073 1.013 1.602 2.088 1.602 3.232 0 .822-.283 1.521-.848 2.088l-12.173 10.927 14.818 21.467c.374.569.565 1.144.565 1.712 0 1.137-.632 2.268-1.891 3.374-1.257 1.1-2.484 1.663-3.681 1.663-1.068 0-1.945-.476-2.637-1.423l-13.869-20.614-6.89 6.266v11.871c0 .828-.503 1.582-1.509 2.286-1 .698-2.191 1.045-3.577 1.045-1.387 0-2.534-.347-3.443-1.045-.913-.704-1.368-1.458-1.368-2.286z" fill="none"/></mask><mask id="e" fill="#fff"><path d="m10.266 19.514h15.663c1.381 0 2.308-.185 2.78-.556.48-.377.706-1.131.706-2.25 0-2.49-.908-4.609-2.73-6.353-1.829-1.748-4.087-2.62-6.793-2.62-2.644 0-4.908.829-6.792 2.479-1.884 1.656-2.834 3.756-2.834 6.303zm-9.904 8.076v-9.022c0-5.005 1.92-9.325 5.755-12.971 3.841-3.64 8.461-5.463 13.868-5.463 5.153 0 9.572 1.651 13.252 4.944 3.683 3.294 5.523 7.447 5.523 12.477 0 1.94-.221 3.504-.663 4.697-.435 1.198-1.134 2.026-2.073 2.515-.945.488-1.829.791-2.645.927-.822.116-1.884.191-3.209.191h-19.904v2.2c0 3.188 1.135 5.722 3.398 7.613 2.264 1.878 5.222 2.819 8.873 2.819 2.577 0 5.007-.607 7.302-1.817 2.3-1.211 3.699-1.818 4.197-1.818 1.073 0 1.988.507 2.737 1.52.759 1.015 1.134 2.003 1.134 2.955 0 1.568-1.515 3.145-4.528 4.751-3.013 1.589-6.731 2.392-11.13 2.392-6.412 0-11.664-1.743-15.751-5.228-4.087-3.491-6.136-8.045-6.136-13.682z" fill="none"/></mask><mask id="f" fill="#fff"><path d="m.773 42.409v-38.475c0-.951.454-1.723 1.369-2.322.907-.606 2.056-.909 3.455-.909 1.245 0 2.318.303 3.195.915.885.611 1.32 1.396 1.32 2.354v4.227c1.067-2.237 2.694-4.14 4.865-5.71 2.167-1.57 4.535-2.355 7.112-2.355h3.031c1.001 0 1.877.433 2.632 1.298s1.136 1.903 1.136 3.121c0 1.211-.381 2.274-1.136 3.164-.755.902-1.631 1.348-2.632 1.348h-3.031c-3.007 0-5.67 1.297-7.965 3.886-2.3 2.589-3.448 5.939-3.448 10.041v19.43c0 .821-.502 1.581-1.509 2.273-.999.698-2.197 1.045-3.57 1.045-1.399 0-2.548-.347-3.455-1.045-.915-.704-1.369-1.458-1.369-2.286z" fill="none"/></mask><mask id="g" fill="#fff"><path d="m6.796 28.319c0 3.214 1.142 6.069 3.437 8.553 2.295 2.492 5.05 3.732 8.259 3.732 3.265 0 6.063-1.24 8.393-3.732 2.326-2.484 3.491-5.339 3.491-8.553v-10.288c0-3.096-1.177-5.865-3.54-8.324-2.361-2.454-5.135-3.683-8.344-3.683s-5.964 1.229-8.259 3.683c-2.295 2.459-3.437 5.228-3.437 8.324zm-6.135.031v-10.35c0-4.815 1.761-8.979 5.277-12.495 3.528-3.517 7.712-5.278 12.554-5.278 4.834 0 9.056 1.743 12.64 5.234 3.584 3.479 5.374 7.658 5.374 12.539v10.35c0 4.747-1.803 8.942-5.418 12.595-3.614 3.639-7.817 5.457-12.596 5.457-4.719 0-8.872-1.818-12.456-5.457-3.584-3.653-5.375-7.848-5.375-12.595z" fill="none"/></mask><mask id="h" fill="#fff"><path d="m.023 43.263v-40.187c0-.693.282-1.243.847-1.656.565-.414 1.288-.625 2.171-.625.756 0 1.418.229 1.983.68s.846.995.846 1.637v4.432c1.074-2.058 2.706-3.783 4.909-5.191 2.196-1.415 4.78-2.126 7.731-2.126 4.535 0 8.462 1.743 11.793 5.234 3.332 3.479 5.002 7.658 5.002 12.539v25.263c0 .766-.315 1.371-.946 1.803-.632.446-1.356.674-2.172.674-.755 0-1.442-.228-2.068-.674-.638-.432-.945-1.032-.945-1.791v-25.213c0-3.097-1.166-5.883-3.491-8.343-2.331-2.46-5.099-3.695-8.302-3.695-2.957 0-5.564 1.113-7.829 3.318-2.265 2.213-3.393 5.123-3.393 8.72v25.213c0 .63-.326 1.199-.951 1.704-.626.508-1.35.761-2.167.761-.883 0-1.606-.253-2.171-.761-.565-.505-.847-1.074-.847-1.716z" fill="none"/></mask><mask id="i" fill="#fff"><path d="m6.533 20.558h18.867c1.89 0 3.141-.198 3.774-.612.626-.401.939-1.279.939-2.595 0-3.146-1.112-5.914-3.351-8.305-2.227-2.399-5.044-3.585-8.436-3.585-3.27 0-6.057 1.125-8.352 3.393-2.294 2.262-3.441 4.975-3.441 8.12zm-6.129 7.792v-10.635c0-4.758 1.766-8.855 5.276-12.309 3.528-3.449 7.768-5.179 12.738-5.179 4.786 0 8.915 1.656 12.412 4.943 3.485 3.307 5.235 7.43 5.235 12.373 0 1.767-.209 3.188-.613 4.263-.418 1.076-1.075 1.823-1.99 2.274-.907.445-1.742.73-2.491.854-.759.129-1.797.191-3.116.191h-21.322v3.51c0 3.745 1.337 6.735 4.006 8.979 2.682 2.25 6.123 3.38 10.339 3.38 2.13 0 4.006-.314 5.609-.957 1.601-.625 2.828-1.268 3.675-1.897.853-.638 1.522-.952 2.03-.952.693 0 1.307.334 1.835.995.54.666.811 1.322.811 1.946 0 1.341-1.357 2.713-4.063 4.14-2.7 1.415-6.068 2.133-10.093 2.133-5.97 0-10.848-1.651-14.615-4.987-3.779-3.325-5.663-7.681-5.663-13.065z" fill="none"/></mask><g fill="none" fill-rule="evenodd"><path d="m.06 73.52h9.96v-72.72h-9.96z" fill="#000"/><g fill="#090908"><path d="m.02 46.52h22.92v-46.56h-22.92z" mask="url(#a)" transform="translate(16 27)"/><path d="m.26 46.52h36.24v-46.44h-36.24z" mask="url(#b)" transform="translate(46 27)"/><path d="m.02 46.52h34.56v-46.44h-34.56z" mask="url(#c)" transform="translate(91 27)"/><path d="m.78 73.4h39v-72.6h-39z" mask="url(#d)" transform="translate(132)"/><path d="m.26 46.52h38.52v-46.44h-38.52z" mask="url(#e)" transform="translate(175 27)"/><path d="m.7 45.8h28.2v-45.72h-28.2z" mask="url(#f)" transform="translate(221 27)"/><path d="m.66 46.52h35.88v-46.32h-35.88z" mask="url(#g)" transform="translate(252 27)"/><path d="m-.02 45.8h35.4v-45.6h-35.4z" mask="url(#h)" transform="translate(296 27)"/><path d="m.34 46.52h35.76v-46.32h-35.76z" mask="url(#i)" transform="translate(338 27)"/></g></g></svg>