<svg xmlns="http://www.w3.org/2000/svg" width="211" height="42"><g fill="#239E2E" fill-rule="evenodd"><path d="M139.17 6.95l-3.22 3.23c-.16-.2-.34-.4-.54-.6C131.88 6.07 127.08 4 122 4c-10.48 0-19 8.52-19 19s8.52 19 19 19c8.48 0 15.8-5.46 18.2-13.57.4-1.26-.33-2.58-1.6-2.96-1.24-.37-2.57.35-2.94 1.6-1.8 6.1-7.3 10.18-13.66 10.18-7.86 0-14.25-6.4-14.25-14.25S114.15 8.75 122 8.75c3.8 0 7.4 1.54 10.06 4.2l.48.64-5.2 5.2c-1.02 1-.68 1.83.75 1.83h11.6c.72 0 1.3-.58 1.3-1.3V7.7c0-1.42-.82-1.75-1.83-.75zM.22 17.78h3.5v1.36c.66-.68 1.23-1.14 1.73-1.4.5-.25 1.12-.38 1.82-.38.92 0 1.9.3 2.9.9l-1.6 3.22c-.67-.47-1.33-.7-1.96-.7-1.9 0-2.87 1.43-2.87 4.33V33H.23zm25.6 8.44h-10.9c.1 1.25.5 2.24 1.22 2.98.72.73 1.64 1.1 2.77 1.1.88 0 1.6-.2 2.18-.63.56-.4 1.2-1.2 1.92-2.3L25.97 29c-.46.78-.94 1.45-1.45 2s-1.06 1.02-1.64 1.38c-.6.36-1.22.62-1.9.8s-1.4.24-2.2.24c-2.27 0-4.1-.73-5.47-2.2-1.36-1.46-2.05-3.4-2.05-5.83 0-2.4.67-4.35 2-5.84 1.34-1.47 3.12-2.2 5.34-2.2 2.23 0 4 .7 5.3 2.14 1.3 1.42 1.94 3.38 1.94 5.9zm-3.6-2.88c-.5-1.87-1.67-2.8-3.55-2.8-.43 0-.83.06-1.2.2s-.72.3-1.02.55-.57.53-.8.87-.38.74-.5 1.17zm11.1-2.28V33h-3.54V21.06h-1.25v-3.28h1.25V11.9c0-1.9.33-3.26 1-4.06.92-1.1 2.25-1.65 4-1.65.63 0 1.4.17 2.36.53v3.6l-.36-.2c-.76-.37-1.38-.57-1.87-.57-.62 0-1.04.23-1.26.67-.22.44-.33 1.3-.33 2.54v5h3.84v3.3zm5.85-3.28h3.52v1.36c.63-.68 1.2-1.14 1.7-1.4.52-.25 1.12-.38 1.82-.38.93 0 1.9.3 2.9.9l-1.6 3.22c-.67-.47-1.32-.7-1.96-.7-1.9 0-2.87 1.43-2.87 4.33V33h-3.53zm25.6 8.44h-10.9c.1 1.25.5 2.24 1.22 2.98.7.73 1.63 1.1 2.76 1.1.87 0 1.6-.2 2.17-.63.56-.4 1.2-1.2 1.92-2.3L64.92 29c-.46.78-.94 1.45-1.45 2s-1.06 1.02-1.64 1.38-1.22.62-1.9.8-1.4.24-2.2.24c-2.27 0-4.1-.73-5.46-2.2-1.38-1.46-2.07-3.4-2.07-5.83 0-2.4.67-4.35 2-5.84 1.35-1.47 3.13-2.2 5.35-2.2 2.24 0 4 .7 5.3 2.14 1.3 1.42 1.95 3.38 1.95 5.9zm-3.6-2.88c-.5-1.87-1.67-2.8-3.55-2.8-.42 0-.82.06-1.2.2s-.7.3-1.02.55-.57.53-.8.87-.38.74-.5 1.17zm16.3-2.96l-2.9 1.54c-.47-.94-1.03-1.4-1.7-1.4-.33 0-.6.1-.84.32s-.34.48-.34.82c0 .58.66 1.16 2.02 1.73 1.86.8 3.12 1.53 3.76 2.2s.97 1.6.97 2.74c0 1.47-.54 2.7-1.62 3.7-1.05.93-2.32 1.4-3.8 1.4-2.57 0-4.37-1.25-5.44-3.74l3-1.4c.4.74.73 1.2.95 1.4.42.4.93.6 1.53.6 1.2 0 1.78-.54 1.78-1.63 0-.62-.46-1.2-1.38-1.75-.35-.18-.7-.35-1.06-.5s-.7-.35-1.08-.53c-1.02-.5-1.74-1-2.15-1.5-.54-.64-.8-1.46-.8-2.46 0-1.33.44-2.42 1.35-3.28.93-.87 2.05-1.3 3.38-1.3 1.94 0 3.4 1 4.34 3.02zM81.6 6.6h3.53v12.45c1.25-1.13 2.63-1.7 4.14-1.7 1.7 0 3.1.57 4.12 1.68.87.97 1.3 2.52 1.3 4.64V33h-3.5v-9c0-1.22-.23-2.1-.66-2.65s-1.13-.82-2.1-.82c-1.22 0-2.08.38-2.58 1.14-.5.77-.73 2.1-.73 3.97V33H81.6zM163.06 18.44v4.67c-.8-.97-1.52-1.64-2.15-2-.62-.38-1.35-.57-2.2-.57-1.32 0-2.42.46-3.3 1.4s-1.3 2.08-1.3 3.48c0 1.43.42 2.6 1.26 3.52.85.92 1.94 1.38 3.26 1.38.85 0 1.6-.2 2.24-.55.62-.35 1.36-1.04 2.2-2.06v4.63c-1.42.74-2.85 1.1-4.28 1.1-2.35 0-4.32-.75-5.9-2.27-1.6-1.54-2.38-3.44-2.38-5.7s.8-4.2 2.4-5.76 3.58-2.34 5.9-2.34c1.5 0 2.93.36 4.26 1.08zm2.7 6.84c0-2.2.78-4.07 2.35-5.6s3.5-2.32 5.76-2.32c2.27 0 4.2.78 5.78 2.33 1.56 1.54 2.34 3.45 2.34 5.7 0 2.3-.78 4.2-2.35 5.74-1.6 1.53-3.53 2.3-5.83 2.3-2.28 0-4.2-.78-5.74-2.35-1.54-1.55-2.3-3.5-2.3-5.82zm3.58.06c0 1.52.4 2.73 1.22 3.6.84.9 1.93 1.36 3.3 1.36 1.37 0 2.47-.45 3.3-1.33s1.23-2.07 1.23-3.55-.42-2.66-1.24-3.55c-.84-.9-1.94-1.34-3.3-1.34-1.34 0-2.43.45-3.27 1.34s-1.26 2.06-1.26 3.47zm16.36-7.56h3.53v1.4c1.23-1.2 2.62-1.82 4.16-1.82 1.76 0 3.14.56 4.13 1.67.86.95 1.28 2.5 1.28 4.64V33h-3.52v-8.5c0-1.5-.2-2.54-.62-3.1-.4-.6-1.15-.88-2.22-.88-1.17 0-2 .38-2.5 1.15-.47.76-.7 2.1-.7 4V33h-3.54zm21.2 3.28V33h-3.54V21.06h-1.25v-3.28h1.26V11.9c0-1.9.33-3.26 1-4.06.92-1.1 2.25-1.65 4-1.65.62 0 1.4.17 2.36.53v3.6l-.36-.2c-.76-.37-1.4-.57-1.88-.57-.62 0-1.04.23-1.26.67-.22.44-.33 1.3-.33 2.54v5h3.82v3.3z"/></g></svg>