<svg height="100" viewBox="0 0 247 100" width="247" xmlns="http://www.w3.org/2000/svg" xmlns:xlink="http://www.w3.org/1999/xlink"><mask id="a" fill="#fff"><path d="m.06 99.5967632v-99.38055709h246.036991v99.38055709z" fill="none"/></mask><g fill="#f2cc10" fill-rule="evenodd"><path d="m93.398 32.73c3.508.612 6.764-1.417 7.271-4.537.506-3.114-1.926-6.141-5.436-6.75-3.508-.614-6.764 1.421-7.272 4.533-.506 3.12 1.929 6.141 5.437 6.754" mask="url(#a)"/><path d="m167.946 56.346c-.413 2.835-1.061 5.41-1.943 7.716-.883 2.312-1.923 4.199-3.111 5.672-1.199 1.468-2.017 2.1-3.363 1.888-1.351-.209-2.39-1.127-3.114-2.756-.725-1.625-1.165-3.62-1.324-5.985-.048-.733-.061-1.485-.061-2.246.005-.849.039-1.718.106-2.602.063-.865.145-1.738.27-2.631.366-2.623.955-4.098 1.79-6.247.828-2.155 1.892-3.916 3.186-5.28 1.298-1.365 2.329-1.889 3.988-1.574 1.144.209 1.994 1.046 2.567 2.521.569 1.47.962 2.937 1.165 4.408.107.847.168 1.611.19 2.355.003.085.008.167.008.253.026 1.38-.094 2.734-.354 4.508zm-96.044 1.185c-.348 2.47-.846 4.718-1.487 6.745-.64 2.029-1.458 3.697-2.448 5.008-.994 1.318-2.078 1.867-3.24 1.647-1.401-.219-2.57-1.15-3.501-2.795-.936-1.643-1.52-3.618-1.753-5.914-.233-2.303-.147-4.771.264-7.399.408-2.628 1.138-5.092 2.189-7.393.7-1.316 1.573-2.463 2.624-3.451 1.05-.986 2.218-1.425 3.504-1.314 1.281.109 2.243.901 2.888 2.381.643 1.481 1.051 3.317 1.227 5.505.172 2.198.085 4.52-.267 6.98zm160.008-13.21c.869-2.192 1.686-3.43 2.453-3.722.433-.197.84.097 1.225.874.377.781.651 1.75.82 2.918.163 1.167.185 2.309.079 3.429-.112 1.118-.386 1.967-.821 2.554-.545.778-1.416 1.288-2.614 1.53-1.198.244-2.397.366-3.596.366.763-3.112 1.578-5.764 2.454-7.949zm14.01 25.132c-1.465-3.803-4.86-.851-4.86-.851-1.524 1.457-3.104 2.604-4.739 3.428-1.634.825-3.161 1.045-4.577.658-1.089-.295-1.93-.974-2.535-2.045-.599-1.072-1.034-2.382-1.306-3.942-.274-1.553-.382-3.301-.323-5.248l.246-2.448 4.491-.172c1.58-.193 3.129-.509 4.66-.946 1.524-.436 2.94-.999 4.247-1.68 1.31-.681 2.399-1.55 3.269-2.622 1.091-1.265 1.553-3.017 1.395-5.254-.164-2.236-.791-4.423-1.882-6.567-1.091-2.135-2.644-4.013-4.657-5.612-2.018-1.604-4.337-2.41-6.95-2.41-2.724 0-5.68.264-7.911 2.699-2.238 2.432-3.614 5.491-5.085 9.188-.625 1.569-1.159 3.195-1.609 4.862-2.505 9.225-7.115 18.412-7.115 18.412-1.147 2.196-2.518 3.775-3.17 3.775-1.091 0-1.828-1.323-2.21-3.978-.382-2.65-.548-7.36-.49-11.513.057-4.15.246-8.678.574-13.58 0 0 .702-8.679 1.143-13.232.435-4.547.899-7.152 1.393-10.655.487-3.498.836-5.849 1.061-7.051.323-1.597-.143-2.901-1.397-3.901-1.25-.999-2.717-1.55-4.41-1.649-1.688-.098-3.241.328-4.66 1.271-1.414.955-2.126 2.631-2.126 5.027l-1.958 22.36c-.345 4.062-.598 7.25-.776 11.464-.811 9.43-6.99 19.273-6.99 19.273-1.036 1.702-2.04 2.556-3.024 2.556-1.093 0-1.828-1.28-2.207-3.83-.387-2.551-.569-5.826-.569-9.83 0-3.997.163-7.399.487-12.103.325-4.699.737-13.715 1.229-18.119.487-4.402.948-9.225 1.392-12.577.43-3.351.76-5.626.98-6.83.323-1.598-.143-2.897-1.389-3.899-1.26-1-2.699-1.552-4.338-1.652-1.635-.098-3.161.326-4.571 1.278-1.424.949-2.129 2.625-2.129 5.026 0 2.501-.277 6.2-.817 11.102-.55 4.902-1.04 15.618-1.471 21.319-1.634-1.8-3.536-2.891-5.723-3.147-18.888-2.232-21.82 19.455-21.82 19.455-3.951 12.135-8.439 11.857-8.439 11.857-1.333.041-1.962-2.37-1.988-3.967-.214-13.366 2.776-17.247 2.776-17.247.543-1.414-.092-2.505-.967-3.271-.87-.757-2.018-1.169-3.433-1.224-1.416-.053-2.886.219-4.411.819-1.529.598-2.724 1.442-3.598 2.534-1.202 1.632-2.843 4.573-3.986 6.917-1.147 2.343-2.157 4.982-3.027 7.924-.11-1.086-.025-2.471.08-4.165.195-3.082 2.225-14.841 2.225-14.841.215-1.636-.272-2.834-1.472-3.597-1.203-.762-2.591-1.087-4.169-.981-1.583.107-3.136.708-4.658 1.801-1.529 1.089-2.454 2.724-2.782 4.903-.435 2.181-.177 3.207-.177 5.931 0 .159.002.328.002.49-.22 1.203-.71 2.943-1.471 5.229-.765 2.288-1.58 4.579-2.451 6.865-.875 2.289-1.776 4.281-2.701 5.97-.926 1.689-1.714 2.535-2.367 2.535-.984 0-1.611-.983-1.882-2.943-.274-1.964-.356-4.305-.247-7.033.11-2.722.354-5.557.739-8.499.38-2.941 1.263-5.393 1.699-7.355.328-1.745-.111-3.216-1.307-4.412-1.2-1.201-2.616-1.905-4.253-2.125-1.632-.22-3.624-.295-4.494 1.142-1.468 2.428-2.388 5.285-2.944 8.208-.847-2.739-2.18-5.137-3.993-7.185-2.046-2.302-4.89-3.432-8.493-3.778-21.57-2.085-22.85 13.473-22.85 13.473-.017 1.165-.038 2.373-.059 3.597-1.233-1.848-3.176-3.662-6.171-5.201-3.102-1.613-7.828-3.055-14.452-4.411-8.726-1.776-11.81-2.588-12.892-2.97-2.258-.764-2.949-1.414-3.121-1.618.256-2.975 5.893-7.618 12.663-12.916 11.025-8.565 15.988-9.74 18.05-9.677.197.013 1.925.193 1.868 2.111h.02c-.203.883-.386 2.006-.617 3.418-.299 1.573.204 3.172 1.422 4.505 1.363 1.482 2.778 1.874 3.721 1.94l.196.01c1.546.046 3.731-.616 5.316-3.98.878-1.761 1.327-3.349 1.371-4.856.238-7.934-4.625-13.329-12.217-13.563-7.449-.227-15.993 3.298-26.124 10.778-9.784 7.242-16.354 13.927-16.625 23.005-.086 2.965 1.352 7.075 8.715 9.831l.252.083c6.05 1.654 10.715 2.782 13.829 3.337 8.015 1.536 11.16 2.386 12.372 2.821 2.303.845 3.719 1.878 3.695 2.69-.095 3.213-2.068 5.953-6.029 8.38-3.93 2.401-7.895 3.507-12.116 3.383-1.806-.048-3.279-.467-4.46-1.244-1.2-.797-1.375-1.478-1.396-1.894.054-.181.137-.44.245-.775.348-1.054.524-1.949.549-2.727.082-2.735-1.69-4.703-4.408-4.896l-.265-.014c-2.983-.091-4.292 3.146-4.732 4.235-.668 1.703-1.008 3.09-1.045 4.258-.084 2.818.822 6.9 5.597 10.35 2.903 2.12 6.071 3.313 9.411 3.548.236.015.472.031.71.034l2.401.073c5.325.157 10.897-1.832 16.558-5.919 3.287-2.37 5.731-4.917 7.344-7.618-.084 2.545-.173 5.057-.272 7.522-.176 4.28-.377 8.222-.613 11.836s-.468 6.995-.703 9.188c-.23 1.314.296 2.274 1.577 2.875 1.284.597 2.685.878 4.202.823 1.516-.056 2.947-.411 4.288-1.071 1.339-.653 2.015-1.591 2.015-2.791 0-2.193.028-5.601.087-9.271.06-3.668.201-7.639.439-11.911.35.322.701.606 1.048.818.353.226.704.442 1.049.658 2.104 1.314 4.203 1.973 6.304 1.973 3.149.222 5.927-.629 8.317-2.546 2.39-1.918 4.346-4.408 5.863-7.476.755-1.525 1.379-3.119 1.875-4.779.122.99.22 1.562.22 1.562.222 3.109.953 5.833 2.208 8.177 1.249 2.342 3.347 3.95 6.294 4.818 1.959.544 3.761.331 5.397-.649 1.629-.982 3.13-2.372 4.493-4.169 1.36-1.803 2.557-3.864 3.596-6.213.091-.216.179-.422.274-.634.076 2.288.067 4.276-.029 5.947-.113 1.634.43 2.835 1.633 3.597 1.199.76 2.532 1.14 4.004 1.14 1.469 0 2.834-.348 4.091-1.062 1.25-.707 1.987-1.768 2.204-3.189.108-1.308.379-2.912.82-4.822.432-1.905.92-3.729 1.469-5.474.544-1.74 1.115-3.269 1.714-4.578.6-1.306 1.647-2.544 2.192-2.769.221.555.274 1.834.165 3.845 0 0-.211 14.401 9.5 15.104 1.845.13 6.084-1.164 7.908-3.202 2.157-2.413 3.882-5.489 3.882-5.489.017.1.03.207.053.311 0 0 2.012 13.223 11.834 12.495 0 0 9.352.585 14.26-10.974.763 3.003 1.824 5.428 3.187 7.277 1.362 1.85 3.299 2.777 5.806 2.777 3.379 0 6.29-1.2 8.742-3.602 2.149-2.102 3.939-6.352 5.376-8.953.036.301.064.605.102.9.548 4.404 1.554 9.336 3.026 12.19 1.47 2.85 3.678 4.27 6.618 4.27 3.163 0 5.89-1.297 8.175-3.897 2.29-2.604 2.826-4.225 4.464-7.728.234-.504.453-1.012.677-1.525.803 3.336 2.204 4.823 4.225 7.076 2.175 2.427 5.228 3.649 9.153 3.649 3.265 0 6.233-.639 8.91-1.9 0 0 8.029-4.247 6.571-8.047z" mask="url(#a)"/></g></svg>