<svg height="42" viewBox="0 0 211 42" width="211" xmlns="http://www.w3.org/2000/svg"><g fill="#239E2E" fill-rule="evenodd"><path d="m139.173625 6.9545-3.227625 3.23c-.159125-.192375-.33725-.39425-.53675-.596125-3.5435-3.52925-8.343375-5.588375-13.40925-5.588375-10.476125 0-19 8.523875-19 19s8.523875 19 19 19c8.47875 0 15.796125-5.455375 18.2115-13.573125.37525-1.256375-.342-2.57925-1.598375-2.9545-1.254-.37525-2.57925.344375-2.952125 1.60075-1.8145 6.08475-7.30075 10.176875-13.661 10.176875-7.858875 0-14.25-6.391125-14.25-14.25s6.391125-14.25 14.25-14.25c3.8 0 7.398125 1.54375 10.0605 4.191875l.4845.643625-5.213125 5.213125c-1.009375 1.009375-.672125 1.826375.75525 1.826375h11.620875c.714875 0 1.292-.577125 1.292-1.292v-11.620875c0-1.427375-.817-1.764625-1.826375-.757625z"/><path d="m.21875 17.78125h3.515625v1.359375c.64583656-.6770867 1.2187475-1.1406237 1.71875-1.390625.51041922-.260418 1.11457984-.390625 1.8125-.390625.92708797 0 1.89582828.3020803 2.90625.90625l-1.609375 3.21875c-.66667-.4791691-1.31770516-.71875-1.953125-.71875-1.91667625 0-2.875 1.4479022-2.875 4.34375v7.890625h-3.515625zm25.609375 8.4375h-10.90625c.0937505 1.2500062.4999964 2.244788 1.21875 2.984375.7187536.7291703 1.6406194 1.09375 2.765625 1.09375.8750044 0 1.5989555-.2083313 2.171875-.625.5625028-.4166687 1.2031214-1.1874944 1.921875-2.3125l2.96875 1.65625c-.4583356.7812539-.9427058 1.450518-1.453125 2.0078125s-1.0572887 1.0156232-1.640625 1.375c-.5833362.3593768-1.2135383.622395-1.890625.7890625s-1.4114544.25-2.203125.25c-2.2708447 0-4.0937431-.7291594-5.46875-2.1875-1.3750069-1.4687573-2.0625-3.4166545-2.0625-5.84375 0-2.406262.66666-4.3541592 2-5.84375 1.3437567-1.4687573 3.1249889-2.203125 5.34375-2.203125 2.2395945 0 4.0104102.7135345 5.3125 2.140625 1.2916731 1.4166738 1.9375 3.3801958 1.9375 5.890625zm-3.609375-2.875c-.4895858-1.8750094-1.6718656-2.8125-3.546875-2.8125-.4270855 0-.8281231.0651035-1.203125.1953125s-.7161443.3177071-1.0234375.5625-.5703114.5390608-.7890625.8828125-.3854161.7343728-.5 1.171875zm11.09375-2.28125v11.9375h-3.53125v-11.9375h-1.25v-3.28125h1.25v-5.875c0-1.91667625.33333-3.27082938 1-4.0625.9166713-1.10417219 2.2499913-1.65625 4-1.65625.6250031 0 1.4114536.18228984 2.359375.546875v3.59375l-.359375-.1875c-.7604205-.38541859-1.3854142-.578125-1.875-.578125-.6250031 0-1.0468739.22395609-1.265625.671875-.2187511.4375022-.328125 1.2812438-.328125 2.53125v5.015625h3.828125v3.28125zm5.859375-3.28125h3.515625v1.359375c.6458366-.6770867 1.2187475-1.1406237 1.71875-1.390625.5104192-.260418 1.1145798-.390625 1.8125-.390625.927088 0 1.8958283.3020803 2.90625.90625l-1.609375 3.21875c-.66667-.4791691-1.3177052-.71875-1.953125-.71875-1.9166763 0-2.875 1.4479022-2.875 4.34375v7.890625h-3.515625zm25.609375 8.4375h-10.90625c.0937505 1.2500062.4999964 2.244788 1.21875 2.984375.7187536.7291703 1.6406194 1.09375 2.765625 1.09375.8750044 0 1.5989555-.2083313 2.171875-.625.5625028-.4166687 1.2031214-1.1874944 1.921875-2.3125l2.96875 1.65625c-.4583356.7812539-.9427058 1.450518-1.453125 2.0078125s-1.0572887 1.0156232-1.640625 1.375-1.2135383.622395-1.890625.7890625-1.4114544.25-2.203125.25c-2.2708447 0-4.0937431-.7291594-5.46875-2.1875-1.3750069-1.4687573-2.0625-3.4166545-2.0625-5.84375 0-2.406262.66666-4.3541592 2-5.84375 1.3437567-1.4687573 3.1249889-2.203125 5.34375-2.203125 2.2395945 0 4.0104102.7135345 5.3125 2.140625 1.2916731 1.4166738 1.9375 3.3801958 1.9375 5.890625zm-3.609375-2.875c-.4895858-1.8750094-1.6718656-2.8125-3.546875-2.8125-.4270855 0-.8281231.0651035-1.203125.1953125s-.7161443.3177071-1.0234375.5625-.5703114.5390608-.7890625.8828125-.3854161.7343728-.5 1.171875zm16.296875-2.96875-2.90625 1.546875c-.4583356-.9375047-1.0260383-1.40625-1.703125-1.40625-.3229183 0-.5989572.1067698-.828125.3203125s-.34375.4869775-.34375.8203125c0 .5833363.6770766 1.1614555 2.03125 1.734375 1.8645927.8020873 3.1197884 1.5416633 3.765625 2.21875s.96875 1.5885359.96875 2.734375c0 1.4687573-.5416613 2.6979117-1.625 3.6875-1.0520886.9375047-2.3229092 1.40625-3.8125 1.40625-2.5520961 0-4.3593697-1.2447792-5.421875-3.734375l3-1.390625c.4166687.7291703.7343739 1.1927073.953125 1.390625.4270855.3958353.937497.59375 1.53125.59375 1.1875059 0 1.78125-.5416613 1.78125-1.625 0-.6250031-.4583287-1.2083306-1.375-1.75-.3541684-.1770842-.7083316-.3489575-1.0625-.515625s-.7135398-.3385408-1.078125-.515625c-1.0208384-.5000025-1.7395813-.9999975-2.15625-1.5-.5312527-.6354198-.796875-1.45312-.796875-2.453125 0-1.3229233.4531205-2.4166623 1.359375-3.28125.927088-.8645877 2.0520767-1.296875 3.375-1.296875 1.9479264 0 3.3958286 1.0051983 4.34375 3.015625zm4.140625-13.765625h3.515625v12.4375c1.2500063-1.1250056 2.6302008-1.6875 4.140625-1.6875 1.7187586 0 3.0937448.5572861 4.125 1.671875.8750044.9687548 1.3125 2.5156144 1.3125 4.640625v9.328125h-3.515625v-9c0-1.2187561-.2161437-2.1015598-.6484375-2.6484375s-1.1275994-.8203125-2.0859375-.8203125c-1.2291728 0-2.0937475.3802045-2.59375 1.140625-.4895858.7708372-.734375 2.0937406-.734375 3.96875v7.359375h-3.515625z"/><path d="m163.0625 18.4375v4.671875c-.802087-.9791716-1.52083-1.6510398-2.15625-2.015625-.625003-.3750019-1.359371-.5625-2.203125-.5625-1.322923 0-2.421871.463537-3.296875 1.390625s-1.3125 2.0885347-1.3125 3.484375c0 1.4270905.421871 2.5989537 1.265625 3.515625.854171.9166713 1.942702 1.375 3.265625 1.375.843754 0 1.588538-.1822898 2.234375-.546875.625003-.3541684 1.359371-1.0416616 2.203125-2.0625v4.640625c-1.42709.739587-2.85416 1.109375-4.28125 1.109375-2.354178 0-4.322909-.7604091-5.90625-2.28125-1.583341-1.5312577-2.375-3.4322803-2.375-5.703125s.802075-4.1874922 2.40625-5.75 3.572905-2.34375 5.90625-2.34375c1.500008 0 2.91666.3593714 4.25 1.078125zm2.6875 6.84375c0-2.1979277.78645-4.0677006 2.359375-5.609375s3.489572-2.3125 5.75-2.3125c2.270845 0 4.197909.7760339 5.78125 2.328125 1.562508 1.5520911 2.34375 3.458322 2.34375 5.71875 0 2.2812614-.78645 4.1927006-2.359375 5.734375-1.583341 1.5312577-3.52603 2.296875-5.828125 2.296875-2.281261 0-4.192701-.7812422-5.734375-2.34375-1.541674-1.5416744-2.3125-3.479155-2.3125-5.8125zm3.59375.0625c0 1.5208409.406246 2.7239539 1.21875 3.609375.833337.8958378 1.932285 1.34375 3.296875 1.34375 1.375007 0 2.473954-.4427039 3.296875-1.328125s1.234375-2.0677009 1.234375-3.546875-.411454-2.6614539-1.234375-3.546875c-.833337-.8958378-1.932285-1.34375-3.296875-1.34375-1.343757 0-2.432288.4479122-3.265625 1.34375s-1.25 2.0520762-1.25 3.46875zm16.359375-7.5625h3.53125v1.40625c1.229173-1.2187561 2.614576-1.828125 4.15625-1.828125 1.770842 0 3.151037.5572861 4.140625 1.671875.854171.9479214 1.28125 2.4947809 1.28125 4.640625v9.328125h-3.53125v-8.5c0-1.5000075-.208331-2.5364555-.625-3.109375-.406252-.5833363-1.145828-.875-2.21875-.875-1.166673 0-1.994789.3854128-2.484375 1.15625-.479169.7604205-.71875 2.0885322-.71875 3.984375v7.34375h-3.53125zm21.1875 3.28125v11.9375h-3.53125v-11.9375h-1.25v-3.28125h1.25v-5.875c0-1.91667625.33333-3.27082938 1-4.0625.916671-1.10417219 2.249991-1.65625 4-1.65625.625003 0 1.411454.18228984 2.359375.546875v3.59375l-.359375-.1875c-.76042-.38541859-1.385414-.578125-1.875-.578125-.625003 0-1.046874.22395609-1.265625.671875-.218751.4375022-.328125 1.2812438-.328125 2.53125v5.015625h3.828125v3.28125z"/></g></svg>
