<?xml version="1.0" encoding="UTF-8"?>
<svg width="1001px" height="250px" viewBox="0 0 1001 250" version="1.1" xmlns="http://www.w3.org/2000/svg" xmlns:xlink="http://www.w3.org/1999/xlink">
    <!-- Generator: Sketch 51.3 (57544) - http://www.bohemiancoding.com/sketch -->
    <title>logo-malengo-zwart</title>
    <desc>Created with Sketch.</desc>
    <defs></defs>
    <g id="logo-malengo-zwart" stroke="none" stroke-width="1" fill="none" fill-rule="evenodd">
        <path d="M397.328,0.545 C383.661,0.545 369.994,0.545 356.328,0.545 C355.441,1.87 355.489,3.366 355.49,4.872 C355.497,63.514 355.532,122.157 355.412,180.8 C355.404,184.595 356.893,185.149 360.106,185.105 C370.767,184.96 381.436,184.839 392.089,185.151 C396.59,185.283 397.955,184.083 397.941,179.409 C397.776,121.6 397.838,63.79 397.813,5.98 C397.812,4.168 397.497,2.357 397.328,0.545" id="Fill-1" fill="#1A1919"></path>
        <path d="M916.709,138.967 C912.476,150.327 903.452,156.005 890.566,155.944 C878.374,155.888 868.443,151.723 863.056,139.875 C859.817,132.75 859.117,125.161 858.939,115.368 C859.196,105.47 860.65,93.868 870.055,84.958 C884.71,71.072 911.529,77.256 917.667,96.359 C922.211,110.503 921.93,124.959 916.709,138.967 Z M959.42,88.537 C953.588,70.992 941.759,58.655 924.759,51.384 C913.859,46.722 902.381,45.113 890.254,45.394 C884.917,45.234 879.266,45.559 873.677,46.575 C846.099,51.589 826.834,66.274 818.824,93.939 C815.719,104.663 815.675,115.675 816.386,126.663 C818.143,153.823 834.589,175.461 859.749,184.019 C870.777,187.771 882.19,188.625 893.75,188.387 C924.166,187.76 948.626,172.126 958.241,146.325 C965.32,127.331 965.838,107.844 959.42,88.537 Z" id="Fill-2" fill="#1A1919"></path>
        <path d="M494.832,100.447 C494.422,102.988 492.877,102.693 491.263,102.698 C484.113,102.72 476.962,102.708 469.811,102.708 C462.661,102.708 455.51,102.702 448.359,102.712 C446.602,102.715 445.191,102.819 445.441,100.123 C446.563,87.985 457.371,75.778 468.812,74.01 C483.836,71.689 497.258,85.407 494.832,100.447 Z M534.12,106.981 C533.289,87.819 527.911,70.511 512.423,57.897 C492.563,41.722 457.502,40.779 434.807,55.571 C414.134,69.044 404.93,88.849 403.53,112.828 C402.827,124.886 403.894,136.774 408.052,148.238 C414.758,166.729 427.489,179.276 446.334,184.574 C470.828,191.46 495.077,189.55 518.692,180.013 C520.724,179.192 522.467,178.483 522.401,175.557 C522.196,166.574 522.326,157.586 522.326,147.794 C519.319,149.298 517.151,150.483 514.903,151.489 C499.702,158.297 483.925,160.383 467.64,156.538 C456.301,153.861 448.925,146.826 446.296,135.251 C444.893,129.073 444.931,129.054 451.402,129.053 C477.393,129.048 503.385,128.995 529.376,129.116 C532.908,129.133 534.49,128.433 534.25,124.468 C533.899,118.658 534.373,112.801 534.12,106.981 Z" id="Fill-3" fill="#1A1919"></path>
        <path d="M306.338,123.222 C306.264,125.047 306.322,126.878 306.322,128.706 C306.31,145.048 297.632,156.117 283.21,158.197 C268.352,160.34 257.69,148.899 262.449,135.84 C264.945,128.991 270.628,125.865 277.237,124.658 C286.046,123.05 294.979,122.126 303.841,120.795 C306.015,120.469 306.412,121.414 306.338,123.222 Z M346.189,105.578 C346.203,100.405 345.91,95.271 345.321,90.14 C342.83,68.449 330.809,53.309 310.466,48.104 C285.621,41.747 261.625,46.396 238.233,55.558 C236.949,56.061 235.844,56.691 235.847,58.354 C235.865,68.12 235.856,77.886 235.856,87.678 C238.259,87.824 239.406,86.452 240.782,85.668 C255.454,77.301 271.059,72.835 288.064,74.542 C298.652,75.604 305.366,82.449 306.268,92.515 C306.498,95.077 306.122,96.47 303.048,96.689 C298.079,97.041 293.132,97.833 288.203,98.613 C274.93,100.713 261.342,101.132 248.662,106.376 C222.117,117.354 213.039,153.233 231.82,174.858 C244.138,189.04 260.551,190.354 277.692,186.921 C289.762,184.503 298.492,176.954 306.161,167.078 C306.161,171.688 306.371,176.311 306.092,180.904 C305.886,184.286 307.174,185.153 310.354,185.107 C320.844,184.953 331.34,184.914 341.828,185.123 C345.423,185.195 346.245,183.904 346.228,180.523 C346.102,155.542 346.124,130.56 346.189,105.578 Z" id="Fill-4" fill="#1A1919"></path>
        <path d="M670.247,162.277 C658.133,135.612 658.569,108.757 667.744,81.551 C668.343,79.772 668.894,78.125 668.36,76.243 C664.331,62.048 656.445,51.28 641.543,47.361 C619.466,41.556 597.699,47.359 584.766,66.105 C584.228,66.885 583.577,67.588 582.978,68.327 C582.594,68.231 582.211,68.135 581.829,68.039 C581.829,62.742 581.705,57.441 581.879,52.15 C581.972,49.315 580.983,48.455 578.163,48.488 C566.5,48.626 554.833,48.67 543.171,48.468 C539.789,48.41 539.45,49.879 539.454,52.64 C539.514,95.298 539.535,137.957 539.423,180.615 C539.414,184.125 540.453,185.18 543.923,185.119 C554.751,184.93 565.592,184.822 576.413,185.16 C580.886,185.3 581.976,183.95 581.936,179.582 C581.72,155.922 581.853,132.259 581.825,108.597 C581.814,99.834 583.623,91.694 589.816,85.093 C595.914,78.597 603.425,76.547 612.1,78.297 C620.445,79.982 624.85,85.625 627.195,93.265 C629.07,99.376 629.35,105.697 629.34,112.051 C629.308,134.88 629.313,157.709 629.355,180.538 C629.359,182.475 628.374,185.088 632.088,185.065 C644.252,184.984 656.417,185.043 668.582,185.019 C669.697,185.016 671.298,185.166 671.228,183.524 C670.927,176.421 673.241,168.867 670.247,162.277" id="Fill-5" fill="#1A1919"></path>
        <g id="Group-9" transform="translate(667.000000, 44.000000)" fill="#1A1919">
            <path d="M101.86,75.347 C101.86,86.448 99.151,95.378 93.736,102.136 C88.318,108.897 81.225,112.274 72.453,112.274 C63.59,112.274 56.608,108.941 51.505,102.271 C46.403,95.603 43.852,86.539 43.852,75.079 C43.852,61.741 46.538,51.402 51.909,44.061 C57.28,36.722 64.665,33.05 74.064,33.05 C82.299,33.05 88.99,36.117 94.138,42.248 C99.285,48.38 101.86,55.789 101.86,64.471 L101.86,75.347 Z M101.323,19.891 L100.786,19.891 C92.459,7 79.926,0.555 63.188,0.555 C44.477,0.555 29.394,7.403 17.936,21.099 C6.476,34.796 0.749,53.282 0.749,76.556 C0.749,97.325 5.895,113.885 16.19,126.238 C26.484,138.592 40.405,144.77 57.951,144.77 C76.837,144.77 91.118,137.071 100.786,121.674 L101.323,121.674 L101.323,132.55 C101.323,145.528 97.382,155.801 89.506,163.366 C81.627,170.93 70.527,174.713 56.206,174.713 C41.792,174.713 27.514,170.595 13.371,162.359 L13.371,198.077 C24.201,203.358 38.883,206 57.414,206 C85.431,206 106.828,198.994 121.598,184.985 C136.369,170.974 143.754,151.215 143.754,125.701 L143.754,3.912 L101.323,3.912 L101.323,19.891 Z" id="Fill-6"></path>
            <path d="M329.292,113.078 C325.957,109.294 321.822,107.371 316.892,107.313 C311.959,107.254 307.337,109.127 303.019,112.934 C298.754,116.693 296.277,121.057 295.587,126.022 C294.897,130.988 296.243,135.39 299.626,139.228 C302.917,142.96 307.073,144.884 312.101,144.998 C317.128,145.114 321.721,143.338 325.879,139.673 C330.357,135.726 332.904,131.279 333.52,126.334 C334.13,121.388 332.723,116.97 329.292,113.078" id="Fill-8"></path>
        </g>
        <path d="M216.048,184.354 L174.194,184.354 L174.194,106.757 C174.194,87.005 166.93,77.127 152.403,77.127 C145.494,77.127 139.867,80.096 135.528,86.029 C131.187,91.965 129.018,99.361 129.018,108.219 L129.018,184.354 L87.03,184.354 L87.03,105.96 C87.03,86.739 79.899,77.127 65.638,77.127 C58.463,77.127 52.727,79.963 48.432,85.63 C44.134,91.3 41.987,99.007 41.987,108.75 L41.987,184.354 L0,184.354 L0,48.294 L41.987,48.294 L41.987,69.553 L42.519,69.553 C46.858,62.291 52.949,56.378 60.789,51.815 C68.628,47.254 77.198,44.972 86.499,44.972 C105.72,44.972 118.874,53.432 125.961,70.35 C136.326,53.432 151.56,44.972 171.669,44.972 C201.254,44.972 216.048,63.221 216.048,99.715 L216.048,184.354" id="Fill-10" fill="#0A0B09"></path>
    </g>
</svg>