<svg height="250" viewBox="0 0 1001 250" width="1001" xmlns="http://www.w3.org/2000/svg"><g fill="none" fill-rule="evenodd"><g fill="#1a1919"><path d="m397.328.545c-13.667 0-27.334 0-41 0-.887 1.325-.839 2.821-.838 4.327.007 58.642.042 117.285-.078 175.928-.008 3.795 1.481 4.349 4.694 4.305 10.661-.145 21.33-.266 31.983.046 4.501.132 5.866-1.068 5.852-5.742-.165-57.809-.103-115.619-.128-173.429-.001-1.812-.316-3.623-.485-5.435"/><path d="m916.709 138.967c-4.233 11.36-13.257 17.038-26.143 16.977-12.192-.056-22.123-4.221-27.51-16.069-3.239-7.125-3.939-14.714-4.117-24.507.257-9.898 1.711-21.5 11.116-30.41 14.655-13.886 41.474-7.702 47.612 11.401 4.544 14.144 4.263 28.6-.958 42.608zm42.711-50.43c-5.832-17.545-17.661-29.882-34.661-37.153-10.9-4.662-22.378-6.271-34.505-5.99-5.337-.16-10.988.165-16.577 1.181-27.578 5.014-46.843 19.699-54.853 47.364-3.105 10.724-3.149 21.736-2.438 32.724 1.757 27.16 18.203 48.798 43.363 57.356 11.028 3.752 22.441 4.606 34.001 4.368 30.416-.627 54.876-16.261 64.491-42.062 7.079-18.994 7.597-38.481 1.179-57.788z"/><path d="m494.832 100.447c-.41 2.541-1.955 2.246-3.569 2.251-7.15.022-14.301.01-21.452.01-7.15 0-14.301-.006-21.452.004-1.757.003-3.168.107-2.918-2.589 1.122-12.138 11.93-24.345 23.371-26.113 15.024-2.321 28.446 11.397 26.02 26.437zm39.288 6.534c-.831-19.162-6.209-36.47-21.697-49.084-19.86-16.175-54.921-17.118-77.616-2.326-20.673 13.473-29.877 33.278-31.277 57.257-.703 12.058.364 23.946 4.522 35.41 6.706 18.491 19.437 31.038 38.282 36.336 24.494 6.886 48.743 4.976 72.358-4.561 2.032-.821 3.775-1.53 3.709-4.456-.205-8.983-.075-17.971-.075-27.763-3.007 1.504-5.175 2.689-7.423 3.695-15.201 6.808-30.978 8.894-47.263 5.049-11.339-2.677-18.715-9.712-21.344-21.287-1.403-6.178-1.365-6.197 5.106-6.198 25.991-.005 51.983-.058 77.974.063 3.532.017 5.114-.683 4.874-4.648-.351-5.81.123-11.667-.13-17.487z"/><path d="m306.338 123.222c-.074 1.825-.016 3.656-.016 5.484-.012 16.342-8.69 27.411-23.112 29.491-14.858 2.143-25.52-9.298-20.761-22.357 2.496-6.849 8.179-9.975 14.788-11.182 8.809-1.608 17.742-2.532 26.604-3.863 2.174-.326 2.571.619 2.497 2.427zm39.851-17.644c.014-5.173-.279-10.307-.868-15.438-2.491-21.691-14.512-36.831-34.855-42.036-24.845-6.357-48.841-1.708-72.233 7.454-1.284.503-2.389 1.133-2.386 2.796.018 9.766.009 19.532.009 29.324 2.403.146 3.55-1.226 4.926-2.01 14.672-8.367 30.277-12.833 47.282-11.126 10.588 1.062 17.302 7.907 18.204 17.973.23 2.562-.146 3.955-3.22 4.174-4.969.352-9.916 1.144-14.845 1.924-13.273 2.1-26.861 2.519-39.541 7.763-26.545 10.978-35.623 46.857-16.842 68.482 12.318 14.182 28.731 15.496 45.872 12.063 12.07-2.418 20.8-9.967 28.469-19.843 0 4.61.21 9.233-.069 13.826-.206 3.382 1.082 4.249 4.262 4.203 10.49-.154 20.986-.193 31.474.016 3.595.072 4.417-1.219 4.4-4.6-.126-24.981-.104-49.963-.039-74.945z"/><path d="m670.247 162.277c-12.114-26.665-11.678-53.52-2.503-80.726.599-1.779 1.15-3.426.616-5.308-4.029-14.195-11.915-24.963-26.817-28.882-22.077-5.805-43.844-.002-56.777 18.744-.538.78-1.189 1.483-1.788 2.222-.384-.096-.767-.192-1.149-.288 0-5.297-.124-10.598.05-15.889.093-2.835-.896-3.695-3.716-3.662-11.663.138-23.33.182-34.992-.02-3.382-.058-3.721 1.411-3.717 4.172.06 42.658.081 85.317-.031 127.975-.009 3.51 1.03 4.565 4.5 4.504 10.828-.189 21.669-.297 32.49.041 4.473.14 5.563-1.21 5.523-5.578-.216-23.66-.083-47.323-.111-70.985-.011-8.763 1.798-16.903 7.991-23.504 6.098-6.496 13.609-8.546 22.284-6.796 8.345 1.685 12.75 7.328 15.095 14.968 1.875 6.111 2.155 12.432 2.145 18.786-.032 22.829-.027 45.658.015 68.487.004 1.937-.981 4.55 2.733 4.527 12.164-.081 24.329-.022 36.494-.046 1.115-.003 2.716.147 2.646-1.495-.301-7.103 2.013-14.657-.981-21.247"/><g transform="translate(667 44)"><path d="m101.86 75.347c0 11.101-2.709 20.031-8.124 26.789-5.418 6.761-12.511 10.138-21.283 10.138-8.863 0-15.845-3.333-20.948-10.003-5.102-6.668-7.653-15.732-7.653-27.192 0-13.338 2.686-23.677 8.057-31.018 5.371-7.339 12.756-11.011 22.155-11.011 8.235 0 14.926 3.067 20.074 9.198 5.147 6.132 7.722 13.541 7.722 22.223zm-.537-55.456h-.537c-8.327-12.891-20.86-19.336-37.598-19.336-18.711 0-33.794 6.848-45.252 20.544-11.46 13.697-17.187 32.183-17.187 55.457 0 20.769 5.146 37.329 15.441 49.682 10.294 12.354 24.215 18.532 41.761 18.532 18.886 0 33.167-7.699 42.835-23.096h.537v10.876c0 12.978-3.941 23.251-11.817 30.816-7.879 7.564-18.979 11.347-33.3 11.347-14.414 0-28.692-4.118-42.835-12.354v35.718c10.83 5.281 25.512 7.923 44.043 7.923 28.017 0 49.414-7.006 64.184-21.015 14.771-14.011 22.156-33.77 22.156-59.284v-121.789h-42.431z"/><path d="m329.292 113.078c-3.335-3.784-7.47-5.707-12.4-5.765-4.933-.059-9.555 1.814-13.873 5.621-4.265 3.759-6.742 8.123-7.432 13.088-.69 4.966.656 9.368 4.039 13.206 3.291 3.732 7.447 5.656 12.475 5.77 5.027.116 9.62-1.66 13.778-5.325 4.478-3.947 7.025-8.394 7.641-13.339.61-4.946-.797-9.364-4.228-13.256"/></g></g><path d="m216.048 184.354h-41.854v-77.597c0-19.752-7.264-29.63-21.791-29.63-6.909 0-12.536 2.969-16.875 8.902-4.341 5.936-6.51 13.332-6.51 22.19v76.135h-41.988v-78.394c0-19.221-7.131-28.833-21.392-28.833-7.175 0-12.911 2.836-17.206 8.503-4.298 5.67-6.445 13.377-6.445 23.12v75.604h-41.987v-136.06h41.987v21.259h.532c4.339-7.262 10.43-13.175 18.27-17.738 7.839-4.561 16.409-6.843 25.71-6.843 19.221 0 32.375 8.46 39.462 25.378 10.365-16.918 25.599-25.378 45.708-25.378 29.585 0 44.379 18.249 44.379 54.743z" fill="#0a0b09"/></g></svg>