<svg enable-background="new 0 0 171 33.8" viewBox="0 0 171 33.8" xmlns="http://www.w3.org/2000/svg"><path d="m106.6 27h14.2v-2.1h-13.3c-3.7 0-4.6-.2-5.4-1.2-.4-.5-.6-1.1-.6-1.9 0-2.2 1.2-3.3 3.8-3.6 1-.1 2-.1 3-.1h12.5v-2.1h-12.5c-3.4 0-5-.3-5.9-1.3-.6-.5-.8-1.4-.8-2.4 0-1.8 1-2.8 2.8-3 .7-.1 1.8-.1 3.1-.1h13.3v-2.2h-14.2c-2.9 0-4.2.3-5.3 1.2-1.2.9-1.9 2.4-1.9 4.2 0 2 .7 3.5 2.2 4.7-1.5 1.2-2.2 2.7-2.2 4.7 0 1.8.7 3.4 1.9 4.2 1.3.7 2.5 1 5.3 1zm38.9-14.7c0-1.8-.7-3.3-1.9-4.2-1.1-.9-2.4-1.2-5.3-1.2h-14.2v2.1h13.3c1.4 0 2.4 0 3.1.1 1.8.2 2.8 1.2 2.8 3 0 1-.3 1.9-.8 2.4-1 .9-2.6 1.3-5.9 1.3h-1.8-10.9v11.4h2.1v-9.2h10.7c1.2 0 2.1 0 3 .1 2.6.2 3.8 1.4 3.8 3.6v5.3h2.1v-5.6c0-2-.8-3.3-2.2-4.4 1.3-1.2 2.1-2.7 2.1-4.7zm25 0v-5.2h-2.1v5.2c0 1-.3 1.9-.8 2.4-1 .9-2.6 1.3-5.9 1.3h-10.5v-9h-2.2v20.3h2.1v-9.3h10.5c1.2 0 2.1 0 3 .1 2.6.2 3.8 1.4 3.8 3.6v5.3h2.1v-5.6c0-2-.8-3.3-2.2-4.4 1.5-1.2 2.2-2.7 2.2-4.7z" fill="#fd8e16"/><path d="m88.9 32.5c8.2 0 14.8-6.4 14.8-14.3s-6.6-14.4-14.8-14.4-14.8 6.4-14.8 14.3 6.7 14.4 14.8 14.4z" opacity=".12"/><path d="m86.9 30.5c8.2 0 14.8-6.4 14.8-14.3s-6.6-14.4-14.8-14.4-14.7 6.4-14.7 14.4 6.6 14.3 14.7 14.3z" fill="#fd8e16"/><path d="m96.9 20.3v-13.3h-2.1v12.5c0 3.5-.2 4.3-1.2 5.1-.4.4-1.1.5-1.9.5-2.2 0-3.3-1.2-3.6-3.6-.1-1-.1-1.9-.1-2.8v-11.7h-2.1v11.7c0 3.1-.3 4.7-1.3 5.6-.5.5-1.4.8-2.4.8-1.8 0-2.8-.9-3-2.6-.1-.7-.1-1.7-.1-2.9l.1-19h-2.2v19.8c0 2.7.3 3.9 1.1 5 .9 1.1 2.4 1.8 4.1 1.8 2 0 3.5-.7 4.7-2.1 1.1 1.4 2.7 2.1 4.7 2.1 1.8 0 3.4-.7 4.1-1.8.9-1.3 1.2-2.4 1.2-5.1z" fill="#f7f7f7"/><path d="m15.4 29.1h-14.4v-2.1h13.5c3.8 0 4.6-.2 5.5-1.2.4-.5.6-1.1.6-1.9 0-2.2-1.2-3.4-3.9-3.6-1-.1-2-.1-3-.1h-12.7v-2.1h12.6c3.4 0 5-.3 6-1.3.6-.5.9-1.4.9-2.5 0-1.8-1-2.8-2.8-3-.7-.1-1.8-.1-3.2-.1h-13.5v-2.4h14.4c2.9 0 4.2.3 5.4 1.2s1.9 2.4 1.9 4.2c0 2-.7 3.5-2.3 4.8 1.5 1.2 2.3 2.8 2.3 4.7 0 1.8-.7 3.4-1.9 4.2-1.3.9-2.5 1.2-5.4 1.2zm31.7-5.8c0-1.8-.7-3.3-1.9-4.2s-2.4-1.2-5.4-1.2h-12.1v-3.8c0-1.8 1-2.8 2.8-3 .7-.1 1.8-.1 3.2-.1h10.9v-2.2h-11.8c-2.9 0-4.2.3-5.4 1.2s-1.9 2.4-1.9 4.2v3.7 5.8c0 1.8.7 3.4 1.9 4.2s2.4 1.1 5.1 1.2h7.4c2.9 0 4.1-.3 5.4-1.2 1.2-.8 1.9-2.4 1.9-4.2 0-.1 0-.3-.1-.4zm-2.1.5c0 .8-.2 1.5-.6 1.9-.8 1-1.7 1.2-5.5 1.2h-6.5c-2.8 0-3.5-.3-4.3-1.2-.4-.5-.6-1.1-.6-1.9v-3.7h11.3c1.4 0 2.4 0 3.2.1 1.6.2 2.5 1 2.8 2.3.2.4.2.9.2 1.3zm27-.5c0-1.8-.7-3.3-1.9-4.2s-2.9-1.2-5.8-1.2h-11.6v-6.9h16.7v-2.2h-19v11.2h13.5c1.4 0 2.4 0 3.2.1 1.6.2 2.5 1 2.8 2.3.1.4.1.9.1 1.3 0 .8-.2 1.5-.6 1.9-.8 1-1.7 1.2-5.4 1.2h-13.7v2.2h14.4c2.9 0 4.1-.3 5.4-1.2 1.2-.8 1.9-2.4 1.9-4.2 0 0 0-.2 0-.3z" fill="#efefef"/><path d="m14.4 27.1h-14.4v-2.1h13.5c3.8 0 4.6-.2 5.5-1.2.4-.5.6-1.1.6-1.9 0-2.2-1.2-3.4-3.9-3.6-1-.1-2-.1-3-.1h-12.7v-2.1h12.6c3.4 0 5-.3 6-1.3.6-.5.9-1.4.9-2.5 0-1.8-1-2.8-2.8-3-.8-.2-1.8-.3-3.2-.3h-13.5v-2.2h14.4c2.9 0 4.2.3 5.4 1.2s1.9 2.4 1.9 4.2c0 2-.7 3.5-2.3 4.8 1.5 1.2 2.3 2.8 2.3 4.7 0 1.8-.7 3.4-1.9 4.2-1.3.9-2.5 1.2-5.4 1.2zm31.7-5.8c0-1.8-.7-3.3-1.9-4.2s-2.4-1.2-5.4-1.2h-12.1v-3.8c0-1.8 1-2.8 2.8-3 .7 0 1.8-.1 3.2-.1h10.9v-2.2h-11.8c-2.9 0-4.2.3-5.4 1.2s-1.9 2.4-1.9 4.2v3.7 5.8c0 1.8.7 3.4 1.9 4.2s2.4 1.1 5.1 1.2h7.4c2.9 0 4.1-.3 5.4-1.2 1.2-.8 1.9-2.4 1.9-4.2 0-.1 0-.3-.1-.4zm-2.1.5c0 .8-.2 1.5-.6 1.9-.8 1-1.7 1.2-5.5 1.2h-6.5c-2.8 0-3.5-.3-4.3-1.2-.4-.5-.6-1.1-.6-1.9v-3.7h11.3c1.4 0 2.4 0 3.2.1 1.6.2 2.5 1 2.8 2.3.2.4.2.9.2 1.3zm27-.5c0-1.8-.7-3.3-1.9-4.2s-2.9-1.2-5.8-1.2h-11.6v-6.9h16.7v-2.2h-19v11.2h13.5c1.4 0 2.4 0 3.2.1 1.6.2 2.5 1 2.8 2.3.1.4.1.9.1 1.3 0 .8-.2 1.5-.6 1.9-.8 1-1.7 1.2-5.5 1.2h-13.6v2.2h14.4c2.9 0 4.1-.3 5.4-1.2 1.2-.8 1.9-2.4 1.9-4.2 0 0 0-.2 0-.3z" fill="#c9c9c9"/></svg>