<svg enable-background="new 0 0 343.3 174.5" viewBox="0 0 343.3 174.5" xmlns="http://www.w3.org/2000/svg"><path d="m333.8 0h-324.3c-5.2 0-9.5 4.3-9.5 9.5v155.4c0 5.3 4.3 9.5 9.5 9.5h324.3c5.3 0 9.5-4.3 9.5-9.5v-155.4c0-5.2-4.3-9.5-9.5-9.5z" fill="#e60000"/><g fill="#fff"><path d="m148.7 58.5c-5.2 0-4.7 4.3-4.7 9.5v38.6c0 5.3 4.3 9.5 9.5 9.5s9.5-4.3 9.5-9.5v-25.1c0-15.8-9-23-14.3-23z"/><path d="m47.1 72.6c-5.2 0-4.7 4.3-4.7 9.5v24.5c0 5.2 4.3 9.5 9.5 9.5s9.5-4.3 9.5-9.5v-11.1c0-15.7-9-22.9-14.3-22.9z"/><path d="m200.7 58.3c-7.4 0-13.8 6.9-15.2 11.4-3-7.6-8.5-11.2-12.2-11.2-5.2 0-4.7 4.3-4.7 9.5l.1 9.5v29.1c0 5.2 4.3 9.5 9.5 9.5s9.5-4.3 9.5-9.5v-22.2c0-3.8 1.2-8.4 7-8.4 1.7 0 6.8 0 6.8 8.4v22.2c0 5.2 4.3 9.5 9.5 9.5s9.5-4.3 9.5-9.5v-26.8c0-13.3-7.6-21.5-19.8-21.5z"/><path d="m130.8 58.4c-4.4 0-7.7 2.6-9.1 7.1l-6.1 19.9-6.1-19.7c-1.4-4.6-5.1-7.4-9.6-7.4h-.9c-4.5 0-8.2 2.8-9.6 7.4l-5.4 17.5c-1.5-4.9-5.8-31.4-31.1-33-8.7-.5-11.2 4.7-12 7.6-.7 2.8-.4 5.2 1.3 7.3 1.7 2.2 5 2.5 8.9 4 9.9 3.9 12.5 12.7 14.8 18.2.8 1.9 6.4 20.8 6.4 20.8 1.8 5.2 5.4 8.1 10.2 8.1h.5c4.8 0 8.4-2.9 10-7.8l6.3-19.7 6.2 19.7c1.6 5 5.2 7.8 10 7.8h.5c4.8 0 8.4-2.9 10.2-8l13-37.2v-.1c.2-.7.6-2.3.6-3.6 0-5-3.9-8.9-9-8.9z"/><path d="m276 99.9c-.2-.2-.4-.4-.6-.6l-14.1-14.4 11.3-9.6c1.9-1.8 4.1-4.3 4.1-8 0-4.3-3.2-8.7-8.6-8.7-3.6 0-5.9 1.9-8 3.9l-15 14.2c-1.6-12.5-9.2-18.4-14-18.4-4.2 0-4.8 2.7-4.8 6.5-.1 1.1-.1 2.4-.1 3.7v38c0 4.9 3.8 9.1 8.6 9.6.3 0 .7.1 1 .1 5.3 0 9.5-4.4 9.5-9.6v-7.5l3.3-3 14.5 16.4c.6.6 1.3 1.3 2.1 1.9 1.1.9 2.5 1.5 4.2 1.8.1 0 1.2.1 1.8.1 4.3-.1 8.7-3.2 8.6-8.6-.2-3.6-1.9-5.8-3.8-7.8z"/><circle cx="293.3" cy="106.7" r="9.5"/></g></svg>