<svg height="98" viewBox="0 0 593 98" width="593" xmlns="http://www.w3.org/2000/svg" xmlns:xlink="http://www.w3.org/1999/xlink"><mask id="a" fill="#fff"><path d="m0 .667h521.959v97.333h-521.959z" fill="none"/></mask><g fill="#1a1919" fill-rule="evenodd"><path d="m283.677 38.616c-1.467-2.075-3.555-3.798-6.204-5.123-2.647-1.323-6.063-1.993-10.152-1.993-3.996 0-7.551.957-10.566 2.844-2.686 1.682-4.743 3.746-6.126 6.146-1.23-2.393-3.068-4.452-5.474-6.132-2.718-1.897-6.664-2.858-11.727-2.858-3.657 0-6.906.901-9.658 2.679-2.122 1.371-3.803 2.994-5.018 4.838v-6.091h-13.727v55.437h13.727v-28.245c0-3.217.31-5.913.922-8.011.607-2.085 1.422-3.789 2.423-5.066.984-1.255 2.149-2.144 3.464-2.643 1.344-.51 2.82-.769 4.386-.769 3.42 0 5.781 1.138 7.219 3.479 1.465 2.389 2.208 5.764 2.208 10.034v31.221h13.727v-28.245c0-3.222.292-5.92.867-8.019.569-2.082 1.364-3.783 2.364-5.058.985-1.256 2.132-2.146 3.411-2.645 1.305-.509 2.761-.767 4.325-.767 3.423 0 5.823 1.159 7.337 3.543 1.538 2.425 2.318 5.818 2.318 10.084v31.107h13.727v-34.965c0-2.608-.262-5.223-.78-7.775-.525-2.586-1.532-4.943-2.993-7.007"/><path d="m403.461 32.184c-1.827 0-3.669.269-5.476.799-1.805.53-3.495 1.264-5.024 2.182-1.528.917-2.894 1.969-4.061 3.127-.678.674-1.269 1.377-1.769 2.102v-7.468h-13.728v55.437h13.728v-23.948c0-6.668 1.414-11.588 4.204-14.627 2.778-3.027 6.858-4.562 12.126-4.562.964 0 1.779.038 2.425.112.644.073 1.481.223 2.488.446l.61.135v-12.699l-.303-.13c-1.389-.601-3.146-.906-5.22-.906"/><path d="m430.364 46.172c2.521-2.028 5.621-3.057 9.215-3.057 3.732 0 6.814 1.089 9.161 3.236 2.226 2.036 3.405 4.793 3.51 8.2h-25.628c.104-3.647 1.362-6.465 3.742-8.379zm27.849-7.458c-2.339-2.24-5.109-4.022-8.232-5.295-3.127-1.273-6.512-1.919-10.059-1.919-4.348 0-8.274.743-11.669 2.209-3.402 1.47-6.292 3.538-8.593 6.148-2.296 2.605-4.076 5.734-5.291 9.3-1.21 3.554-1.823 7.419-1.823 11.487 0 3.766.574 7.427 1.708 10.883 1.136 3.47 2.877 6.598 5.172 9.299 2.298 2.705 5.206 4.898 8.641 6.519 3.437 1.621 7.54 2.443 12.196 2.443 3.538 0 6.781-.507 9.638-1.511 2.856-1.003 5.362-2.355 7.45-4.018 2.09-1.663 3.819-3.618 5.138-5.81 1.317-2.191 2.222-4.501 2.687-6.868l.119-.597h-13.789l-.126.316c-.367.924-.841 1.833-1.409 2.7-.552.844-1.257 1.574-2.095 2.166-.844.598-1.898 1.086-3.133 1.452-1.241.369-2.748.555-4.48.555-2.473 0-4.607-.363-6.341-1.08-1.727-.711-3.143-1.687-4.208-2.902-1.073-1.222-1.883-2.685-2.41-4.347-.486-1.53-.753-3.168-.797-4.875h38.487l.071-.418c.307-1.804.482-3.373.52-4.662.039-1.31.057-2.407.057-3.352 0-3.551-.656-6.882-1.952-9.898s-3.139-5.682-5.477-7.925z"/><path d="m478.447 88.363h13.728v-79.286h-13.728z"/><path d="m563.052 77.431c-2.311 0-4.437-.454-6.317-1.349-1.891-.899-3.538-2.117-4.893-3.621-1.356-1.502-2.407-3.297-3.123-5.336-.719-2.048-1.084-4.228-1.084-6.481 0-2.289.365-4.48 1.084-6.508.715-2.019 1.767-3.806 3.124-5.309 1.354-1.502 3.001-2.72 4.892-3.62 1.882-.896 4.007-1.35 6.317-1.35 2.311 0 4.458.455 6.378 1.351 1.925.899 3.58 2.116 4.916 3.617 1.34 1.506 2.403 3.305 3.156 5.346.756 2.047 1.139 4.225 1.139 6.473 0 2.249-.383 4.427-1.138 6.474-.755 2.042-1.817 3.841-3.157 5.346-1.336 1.502-2.991 2.718-4.916 3.616-1.919.897-4.065 1.351-6.378 1.351zm15.589-44.505v6.259c-1.675-2.184-3.882-3.961-6.58-5.294-3.213-1.587-6.493-2.391-9.751-2.391-4.158 0-8.027.782-11.501 2.325-3.469 1.543-6.49 3.684-8.979 6.365-2.486 2.679-4.448 5.823-5.833 9.344-1.387 3.524-2.089 7.261-2.089 11.11 0 3.926.703 7.674 2.09 11.141 1.387 3.466 3.347 6.589 5.831 9.284 2.489 2.701 5.501 4.853 8.951 6.394 3.453 1.543 7.333 2.325 11.53 2.325 3.257 0 6.538-.803 9.751-2.39 2.698-1.332 4.905-3.11 6.58-5.295v6.26h13.727v-55.437z"/><path d="m175.127 60.53c0 2.248-.384 4.426-1.141 6.473-.756 2.041-1.828 3.84-3.188 5.344-1.359 1.503-3.026 2.721-4.956 3.619-1.922.897-4.072 1.351-6.39 1.351-2.316 0-4.445-.454-6.329-1.349-1.893-.898-3.532-2.116-4.872-3.618-1.341-1.504-2.384-3.3-3.102-5.339-.72-2.046-1.085-4.226-1.085-6.481v-44.85h-14.412v44.85c0 4.002.721 7.855 2.143 11.454 1.423 3.6 3.463 6.803 6.061 9.519 2.599 2.718 5.751 4.897 9.368 6.475 3.619 1.581 7.734 2.382 12.228 2.382 4.577 0 8.765-.801 12.449-2.38 3.681-1.579 6.868-3.758 9.474-6.477 2.603-2.716 4.637-5.921 6.044-9.521 1.406-3.6 2.119-7.452 2.119-11.452v-44.85h-14.411z"/><path d="m332.024 43.857c2.348 0 4.482.454 6.345 1.349 1.872.899 3.509 2.118 4.866 3.621 1.357 1.505 2.407 3.3 3.123 5.336.719 2.048 1.084 4.228 1.084 6.481 0 2.254-.365 4.433-1.084 6.481-.716 2.037-1.766 3.833-3.123 5.336-1.356 1.504-3.003 2.722-4.893 3.621-1.881.895-4.006 1.349-6.318 1.349-2.426 0-4.619-.454-6.518-1.35-1.909-.898-3.553-2.115-4.889-3.617-1.338-1.502-2.38-3.298-3.097-5.339-.719-2.048-1.085-4.228-1.085-6.481 0-2.289.366-4.479 1.084-6.508.717-2.021 1.759-3.808 3.098-5.311 1.336-1.501 2.98-2.718 4.889-3.618 1.901-.895 4.094-1.35 6.518-1.35zm21.223-3.667c-2.488-2.68-5.499-4.822-8.95-6.364-3.455-1.544-7.334-2.326-11.531-2.326-3.257 0-6.538.804-9.751 2.391-2.697 1.332-4.904 3.109-6.58 5.294v-30.189h-13.726v79.367h13.726v-6.26c1.677 2.186 3.884 3.963 6.58 5.295 3.213 1.587 6.494 2.39 9.751 2.39 4.16 0 8.029-.782 11.501-2.325 3.47-1.541 6.492-3.693 8.981-6.394 2.482-2.694 4.444-5.817 5.831-9.284 1.388-3.466 2.09-7.214 2.09-11.141 0-3.887-.702-7.635-2.089-11.14-1.386-3.502-3.349-6.636-5.833-9.314z"/><path d="m508.231 88.363h13.728v-79.286h-13.728z" mask="url(#a)"/><path d="m48.553 10.017c1.082 0 2.144.213 3.158.633l22.099 9.154c2.037.844 3.623 2.43 4.467 4.467l9.154 22.099c.843 2.037.843 4.281 0 6.318l-9.154 22.099c-.844 2.036-2.43 3.623-4.467 4.466l-22.099 9.154c-2.007.832-4.309.832-6.317 0l-22.099-9.154c-2.037-.843-3.623-2.43-4.467-4.466l-9.153-22.1c-.837-2.02-.832-4.335.014-6.352l9.357-22.3c.853-2.033 2.447-3.612 4.487-4.447l21.896-8.952c1.004-.41 2.055-.619 3.124-.619zm47.702 34.129-10.275-24.808c-1.387-3.349-3.996-5.957-7.345-7.344l-24.836-10.288c-3.328-1.378-6.996-1.386-10.329-.023l-24.51 10.021c-3.354 1.372-5.974 3.968-7.378 7.311l-10.532 25.102c-1.392 3.316-1.4 7.123-.024 10.445l10.263 24.778c1.388 3.349 3.996 5.957 7.345 7.344l24.807 10.275c1.666.691 3.413 1.041 5.194 1.041 1.78 0 3.527-.35 5.193-1.041l24.807-10.275c3.349-1.387 5.958-3.995 7.345-7.344l10.275-24.807c1.387-3.349 1.387-7.038 0-10.387z" mask="url(#a)"/><path d="m56.816 52.246c-.105.301-.227.596-.365.885-.217.455-.473.895-.769 1.313-.961 1.354-2.272 2.39-3.761 3.024-.001.001-.003.001-.004.002-1.08.459-2.253.708-3.456.708-1.16 0-2.268-.226-3.285-.635-.01-.004-.02-.007-.03-.011-.158-.065-.314-.132-.468-.205-2.124-1.01-3.783-2.841-4.567-5.081-.319-.914-.495-1.892-.495-2.913 0-3.519 2.067-6.564 5.05-7.987 0 0 0 0 .001-.001.154-.073.312-.141.471-.206.012-.005.024-.01.036-.015 1.017-.408 2.126-.636 3.287-.636 1.052 0 2.062.186 2.998.524.001.001.001.001.001.001.317.114.624.247.923.395l.001.001c1.919.953 3.444 2.583 4.262 4.576.002.004.003.007.005.011.421 1.03.655 2.157.655 3.337 0 1.004-.167 1.986-.49 2.913"/></g></svg>