<svg height="59" viewBox="0 0 238 59" width="238" xmlns="http://www.w3.org/2000/svg" xmlns:xlink="http://www.w3.org/1999/xlink"><mask id="a" fill="#fff"><path d="m.06.091h51.818v58.849h-51.818z" fill="none"/></mask><g fill="#38a2cf" fill-rule="evenodd"><path d="m83.614 23.733h-10.762v-1.83c0-4.532 2.048-5.447 5.316-5.447s5.446.959 5.446 5.447zm-5.446-10.937c-5.795 0-9.412 2.441-9.412 9.107v7.451c0 6.842 2.614 9.325 9.412 9.325 6.623 0 9.325-2.745 9.325-7.669h-4.009c0 2.614-1.656 3.834-5.316 3.834s-5.316-1.045-5.316-5.577v-1.917h14.728v-5.447c0-6.623-3.704-9.107-9.412-9.107z"/><path d="m118.648 12.622c-3.616 0-6.144 1.089-7.799 3.138-1.221-2.136-3.661-3.138-6.972-3.138-2.527 0-4.924.741-6.536 3.094l-.305-2.789h-3.486v25.49h4.183v-16.601c0-3.878 2.396-5.316 5.534-5.316 3.093 0 5.054.697 5.054 5.273v16.644h4.183v-15.338c0-4.531 1.918-6.492 5.621-6.492 3.007 0 4.968 1.525 4.968 5.273v16.557h4.182v-16.47c0-7.19-3.049-9.325-8.627-9.325"/><path d="m148.279 29.136c0 4.619-1.83 5.752-5.402 5.752-3.573 0-5.403-1.133-5.403-5.752l.043-6.753c.044-4.619 2.309-5.752 5.36-5.752 3.703 0 5.402 1.176 5.402 5.926zm-4.749-16.471c-2.963 0-5.01 1.09-6.013 2.572v-11.112h-4.183v25.011c0 6.929 2.658 9.717 9.543 9.717 6.884 0 9.542-2.788 9.542-9.717v-6.666c0-6.319-2.483-9.805-8.889-9.805z"/><path d="m161.832 15.28-.175-2.353h-3.791v25.534h4.14v-16.383c0-3.922 3.138-5.578 7.146-4.924v-4.227c-3.137-.654-6.057.436-7.32 2.353"/><path d="m180.09 34.67c-1.874 0-3.66-.653-3.835-2.658-.305-2.483 1.177-3.834 4.009-4.444 2.178-.479 4.706-.436 5.882-.436-.13 4.183-1.481 7.538-6.056 7.538zm1.264-22.005c-5.404 0-8.367 2.397-8.193 8.062h4.053c-.044-3.442 1.612-4.271 4.009-4.271 3.834 0 4.837 1.874 4.837 4.75v2.484c-2.005.043-4.14.087-6.145.392-5.228.741-8.278 3.965-7.843 8.454.305 3.005 1.743 6.099 7.582 6.099 3.094 0 5.577-1.786 6.492-3.66l.349 3.442h3.747v-17.211c0-6.188-3.311-8.541-8.888-8.541z"/><path d="m205.145 16.456c3.311 0 5.228.741 5.403 4.75l3.922-.044c-.262-6.536-3.66-8.54-9.325-8.54-5.883 0-9.543 2.527-9.543 9.281v7.233c0 6.929 2.919 9.717 9.543 9.717 6.623 0 9.237-2.353 9.325-9.063h-3.922c-.087 4.357-1.874 5.098-5.403 5.098-3.53 0-5.404-1.133-5.404-5.752v-7.233c0-4.618 1.917-5.447 5.404-5.447"/><path d="m223.272 21.903c0-4.532 2.048-5.447 5.317-5.447 3.267 0 5.446.959 5.446 5.447v1.83h-10.763zm14.728 5.447v-5.447c0-6.623-3.703-9.107-9.411-9.107-5.796 0-9.412 2.441-9.412 9.107v7.451c0 6.842 2.614 9.325 9.412 9.325 6.622 0 9.324-2.745 9.324-7.669h-4.009c0 2.614-1.655 3.834-5.315 3.834s-5.317-1.045-5.317-5.577v-1.917z"/><path d="m26.258 16.731c-3.268 0-5.316.915-5.316 5.447v1.83h10.763v-1.83c0-4.488-2.179-5.447-5.447-5.447" mask="url(#a)"/><path d="m35.67 27.625h-14.728v1.917c0 4.532 1.656 5.578 5.316 5.578s5.316-1.22 5.316-3.834h4.008c0 4.922-2.701 7.668-9.324 7.668-6.798 0-9.412-2.484-9.412-9.325v-7.451c0-6.666 3.616-9.107 9.412-9.107 5.708 0 9.412 2.484 9.412 9.107zm-9.731-27.534c-14.326 0-25.939 11.613-25.939 25.939 0 10.597 6.359 19.705 15.467 23.73l-.005.004.202.085c.128.056.257.109.386.163l21.349 8.988.001-9.7c8.576-4.231 14.478-13.06 14.478-23.27 0-14.326-11.613-25.939-25.939-25.939z" mask="url(#a)"/></g></svg>