<svg xmlns="http://www.w3.org/2000/svg" width="247" height="100" xmlns:xlink="http://www.w3.org/1999/xlink"><defs><path id="a" d="M.06 99.6V.22H246.1V99.6z"/></defs><g fill="none"><g><g><mask id="b"><use xlink:href="#a"/></mask><path fill="#f2cc10" d="M93.4 32.73c3.5.6 6.76-1.42 7.27-4.54.5-3.12-1.93-6.15-5.44-6.76-3.5-.6-6.76 1.42-7.27 4.54-.5 3.12 1.93 6.14 5.44 6.75" mask="url(#b)"/><path fill="#f2cc10" d="M167.95 56.35c-.42 2.83-1.06 5.4-1.95 7.7-.88 2.32-1.92 4.2-3.1 5.68-1.2 1.47-2.03 2.1-3.37 1.9-1.35-.22-2.4-1.13-3.12-2.76-.7-1.63-1.15-3.62-1.3-6-.06-.72-.07-1.47-.07-2.23 0-.85.04-1.72.1-2.6.07-.87.15-1.74.28-2.64.37-2.62.96-4.1 1.8-6.24.82-2.16 1.9-3.92 3.18-5.28 1.3-1.37 2.33-1.9 4-1.58 1.13.2 1.98 1.05 2.56 2.52.57 1.47.96 2.94 1.16 4.4.1.86.17 1.62.2 2.37 0 .07 0 .15 0 .24.03 1.38-.1 2.73-.35 4.5zM71.9 57.53c-.35 2.47-.84 4.72-1.48 6.75-.64 2.03-1.46 3.7-2.45 5-1 1.32-2.08 1.87-3.24 1.65-1.4-.22-2.57-1.15-3.5-2.8-.94-1.64-1.52-3.6-1.76-5.9-.23-2.3-.14-4.78.27-7.4.4-2.63 1.13-5.1 2.2-7.4.7-1.32 1.56-2.46 2.6-3.45 1.06-1 2.23-1.43 3.5-1.3 1.3.1 2.26.9 2.9 2.37.64 1.48 1.05 3.3 1.23 5.5.17 2.2.08 4.52-.27 6.98zm160-13.2c.88-2.2 1.7-3.44 2.46-3.73.44-.2.84.1 1.23.87.37.78.64 1.75.8 2.92.17 1.16.2 2.3.1 3.42-.13 1.12-.4 1.97-.83 2.55-.55.78-1.42 1.3-2.62 1.53-1.2.25-2.4.37-3.6.37.77-3.1 1.58-5.76 2.46-7.95zm14.02 25.12c-1.46-3.8-4.86-.85-4.86-.85-1.52 1.46-3.1 2.6-4.74 3.43-1.63.83-3.16 1.05-4.58.66-1.1-.3-1.93-1-2.53-2.06-.6-1.07-1.02-2.38-1.3-3.94-.27-1.55-.38-3.3-.32-5.25l.25-2.45 4.5-.17c1.57-.2 3.12-.5 4.65-.94 1.52-.45 2.94-1 4.24-1.7 1.3-.67 2.4-1.54 3.27-2.62 1.08-1.26 1.55-3 1.4-5.25-.18-2.23-.8-4.42-1.9-6.57-1.1-2.13-2.64-4-4.65-5.6-2.02-1.6-4.34-2.42-6.95-2.42-2.72 0-5.68.27-7.9 2.7-2.25 2.43-3.63 5.5-5.1 9.2-.62 1.56-1.16 3.18-1.6 4.85-2.5 9.22-7.12 18.4-7.12 18.4-1.15 2.2-2.52 3.78-3.17 3.78-1.08 0-1.82-1.33-2.2-3.98-.38-2.65-.55-7.36-.5-11.5.07-4.16.25-8.7.58-13.6 0 0 .7-8.67 1.15-13.23.43-4.54.9-7.15 1.4-10.65.48-3.5.82-5.85 1.05-7.05.32-1.6-.14-2.9-1.4-3.9-1.25-1-2.7-1.55-4.4-1.65-1.7-.1-3.25.33-4.67 1.27-1.4.95-2.1 2.62-2.1 5.02l-1.97 22.36c-.35 4.06-.6 7.25-.78 11.46-.8 9.43-7 19.27-7 19.27-1.02 1.72-2.03 2.57-3 2.57-1.1 0-1.84-1.28-2.22-3.83-.4-2.55-.57-5.83-.57-9.83s.17-7.4.5-12.1c.3-4.7.73-13.7 1.22-18.1.5-4.4.95-9.24 1.4-12.6.42-3.34.75-5.6.97-6.82.32-1.6-.14-2.9-1.4-3.9-1.25-1-2.7-1.55-4.33-1.65-1.63-.1-3.16.33-4.57 1.28-1.42.96-2.13 2.63-2.13 5.03 0 2.5-.27 6.2-.8 11.1-.56 4.9-1.05 15.62-1.48 21.32-1.64-1.8-3.54-2.9-5.73-3.14-18.88-2.22-21.8 19.46-21.8 19.46-3.96 12.14-8.45 11.86-8.45 11.86-1.33.04-1.96-2.37-1.98-3.97-.22-13.36 2.77-17.24 2.77-17.24.55-1.4-.1-2.5-.97-3.27-.86-.75-2-1.16-3.43-1.22-1.4-.04-2.88.23-4.4.83-1.54.6-2.73 1.44-3.6 2.53-1.2 1.64-2.85 4.58-4 6.92-1.14 2.34-2.15 4.98-3.02 7.92-.1-1.08-.03-2.47.08-4.16.2-3.08 2.22-14.84 2.22-14.84.22-1.64-.27-2.84-1.47-3.6-1.2-.76-2.6-1.1-4.17-.98-1.58.1-3.13.7-4.65 1.8-1.53 1.1-2.46 2.73-2.8 4.9-.42 2.2-.16 3.2-.16 5.94 0 .16 0 .32 0 .5-.22 1.2-.7 2.93-1.47 5.22-.77 2.28-1.58 4.57-2.45 6.86-.88 2.3-1.78 4.28-2.7 5.97-.93 1.7-1.72 2.55-2.37 2.55-1 0-1.6-1-1.88-2.95-.28-1.96-.36-4.3-.25-7.03.1-2.72.35-5.56.74-8.5.37-2.94 1.25-5.4 1.7-7.36.32-1.73-.12-3.2-1.32-4.4-1.2-1.2-2.62-1.9-4.25-2.12-1.63-.22-3.63-.3-4.5 1.14-1.46 2.43-2.38 5.28-2.94 8.2-.86-2.73-2.2-5.13-4-7.18-2.05-2.3-4.9-3.43-8.5-3.77-21.57-2.1-22.85 13.47-22.85 13.47 0 1.16-.03 2.37-.05 3.6-1.24-1.85-3.18-3.67-6.18-5.2-3.1-1.62-7.82-3.06-14.45-4.42-8.72-1.77-11.8-2.6-12.9-2.97-2.25-.76-2.94-1.4-3.1-1.62.24-2.97 5.88-7.6 12.65-12.9 11.03-8.58 16-9.75 18.05-9.7.2.02 1.93.2 1.87 2.12h.02c-.2.9-.4 2-.62 3.42-.3 1.57.2 3.17 1.43 4.5 1.36 1.5 2.77 1.88 3.72 1.95h.18c1.55.05 3.73-.6 5.32-3.97.88-1.77 1.32-3.35 1.37-4.86.24-7.94-4.63-13.34-12.22-13.57-7.45-.23-16 3.3-26.12 10.78C6.83 23.66.27 30.34 0 39.4c-.08 2.98 1.35 7.1 8.72 9.84l.25.08c6.05 1.66 10.7 2.8 13.83 3.34 8 1.54 11.16 2.4 12.37 2.82 2.3.85 3.72 1.88 3.7 2.7-.1 3.2-2.07 5.95-6.03 8.37-3.93 2.4-7.9 3.5-12.12 3.4-1.8-.06-3.28-.48-4.46-1.26-1.2-.8-1.37-1.5-1.4-1.9.06-.18.14-.44.25-.78.36-1.05.53-1.95.56-2.72.08-2.74-1.7-4.7-4.4-4.9l-.27-.02c-3-.1-4.3 3.15-4.75 4.24-.66 1.7-1 3.1-1.04 4.26-.08 2.82.83 6.9 5.6 10.35 2.9 2.12 6.08 3.3 9.42 3.55.23 0 .47.03.7.03l2.4.08c5.33.16 10.9-1.83 16.57-5.92 3.27-2.37 5.72-4.9 7.33-7.6-.08 2.53-.17 5.04-.27 7.5-.18 4.3-.38 8.23-.62 11.84-.23 3.62-.46 7-.7 9.2-.23 1.3.3 2.27 1.58 2.87 1.28.6 2.68.88 4.2.82 1.52-.07 2.95-.42 4.3-1.08 1.33-.65 2-1.6 2-2.8 0-2.2.03-5.6.1-9.26.05-3.67.2-7.64.43-11.9.35.3.7.6 1.05.8.35.23.7.45 1.05.66 2.1 1.32 4.2 1.98 6.3 1.98 3.15.22 5.93-.63 8.32-2.55 2.4-1.92 4.34-4.4 5.86-7.48.76-1.52 1.38-3.12 1.88-4.78.13.98.23 1.56.23 1.56.22 3.1.95 5.83 2.2 8.17 1.25 2.34 3.35 3.95 6.3 4.82 1.96.55 3.76.33 5.4-.65 1.62-.98 3.13-2.37 4.5-4.17 1.35-1.8 2.55-3.86 3.58-6.2.1-.23.2-.43.3-.64.06 2.27.05 4.26-.04 5.93-.1 1.64.43 2.84 1.63 3.6 1.2.76 2.52 1.14 4 1.14 1.47 0 2.83-.35 4.1-1.06 1.24-.7 1.97-1.76 2.2-3.18.1-1.3.37-2.9.8-4.82.44-1.9.93-3.73 1.48-5.48.54-1.74 1.12-3.27 1.7-4.57.6-1.3 1.66-2.55 2.2-2.77.23.55.28 1.83.17 3.84 0 0-.2 14.4 9.5 15.1 1.85.14 6.1-1.16 7.9-3.2 2.17-2.4 3.9-5.5 3.9-5.5 0 .1.02.22.04.32 0 0 2 13.23 11.83 12.5 0 0 9.35.6 14.26-10.97.75 3 1.8 5.42 3.17 7.27 1.37 1.85 3.3 2.78 5.8 2.78 3.4 0 6.3-1.2 8.75-3.6 2.15-2.1 3.94-6.35 5.38-8.95.03.3.06.6.1.9.55 4.4 1.56 9.33 3.03 12.2 1.47 2.84 3.68 4.26 6.62 4.26 3.16 0 5.88-1.3 8.17-3.9 2.3-2.6 2.83-4.23 4.46-7.73.24-.5.46-1 .68-1.53.8 3.34 2.2 4.83 4.23 7.08 2.16 2.43 5.2 3.65 9.14 3.65 3.26 0 6.23-.64 8.9-1.9 0 0 8.04-4.25 6.58-8.05z" mask="url(#b)"/></g></g></g></svg>