<svg xmlns="http://www.w3.org/2000/svg" width="417" height="108" xmlns:xlink="http://www.w3.org/1999/xlink"><title>pattern 01</title><desc>Created with Sketch.</desc><defs><path id="a" d="M48.38 210.22c-2.37 2.37-6.22 2.37-8.6 0-2.37-2.38-2.37-6.23 0-8.6L239.62 1.78c2.37-2.37 6.22-2.37 8.6 0 2.37 2.38 2.37 6.23 0 8.6L48.38 210.22zm-38 0c-2.37 2.37-6.22 2.37-8.6 0-2.37-2.38-2.37-6.23 0-8.6L201.62 1.78c2.37-2.37 6.22-2.37 8.6 0 2.37 2.38 2.37 6.23 0 8.6L10.38 210.22zm187 0c-2.37 2.37-6.22 2.37-8.6 0-2.37-2.38-2.37-6.23 0-8.6L388.62 1.78c2.37-2.37 6.22-2.37 8.6 0 2.37 2.38 2.37 6.23 0 8.6L197.38 210.22zm-74 0c-2.37 2.37-6.22 2.37-8.6 0-2.37-2.38-2.37-6.23 0-8.6L314.62 1.78c2.37-2.37 6.22-2.37 8.6 0 2.37 2.38 2.37 6.23 0 8.6L123.38 210.22zm149 0c-2.37 2.37-6.22 2.37-8.6 0-2.37-2.38-2.37-6.23 0-8.6L463.62 1.78c2.37-2.37 6.22-2.37 8.6 0 2.37 2.38 2.37 6.23 0 8.6L272.38 210.22zm-187 0c-2.37 2.37-6.22 2.37-8.6 0-2.37-2.38-2.37-6.23 0-8.6L276.62 1.78c2.37-2.37 6.22-2.37 8.6 0 2.37 2.38 2.37 6.23 0 8.6L85.38 210.22zm150 0c-2.37 2.37-6.22 2.37-8.6 0-2.37-2.38-2.37-6.23 0-8.6L426.62 1.78c2.37-2.37 6.22-2.37 8.6 0 2.37 2.38 2.37 6.23 0 8.6L235.38 210.22zm-75 0c-2.37 2.37-6.22 2.37-8.6 0-2.37-2.38-2.37-6.23 0-8.6L351.62 1.78c2.37-2.37 6.22-2.37 8.6 0 2.37 2.38 2.37 6.23 0 8.6L160.38 210.22zm150 0c-2.37 2.37-6.22 2.37-8.6 0-2.37-2.38-2.37-6.23 0-8.6L501.62 1.78c2.37-2.37 6.22-2.37 8.6 0 2.37 2.38 2.37 6.23 0 8.6L310.38 210.22z"/></defs><g fill="none" opacity=".5"><g><g transform="translate(-723) translate(723 -104)"><mask id="b"><use xlink:href="#a"/></mask><use fill="#fff" fill-rule="nonzero" xlink:href="#a"/><g fill="#fff" mask="url(#b)"><path d="M0 0h512v212H0z"/></g></g></g></g></svg>