<svg xmlns="http://www.w3.org/2000/svg" width="86" height="82"><path fill="#f6f5f6" fill-rule="evenodd" d="M82 69.55l-7.87-5.72c-.27.46-.57.94-.93 1.43-6.28 8.62-15.7 14.55-26.36 16.24C24.78 85 4 69.9.5 47.84S12.1 5 34.16 1.5C52.02-1.33 69.24 7.72 77.03 24c1.2 2.52.14 5.55-2.38 6.76-2.5 1.2-5.54.13-6.75-2.4C62.05 16.17 49.14 9.4 35.75 11.5 19.2 14.12 7.88 29.7 10.5 46.25S28.7 74.12 45.25 71.5c8-1.27 15.06-5.72 19.78-12.18l.8-1.52-12.7-9.23c-2.47-1.8-2.03-3.62.98-4.1l24.47-3.87c1.5-.24 2.92.78 3.15 2.28l3.88 24.47c.48 3-1.13 4-3.6 2.2z"/></svg>