<svg height="82" viewBox="0 0 86 82" width="86" xmlns="http://www.w3.org/2000/svg"><path d="m77.1069375 7.29775-6.8799375 6.885c-.3391875-.4100625-.718875-.840375-1.144125-1.2706875-7.55325-7.522875-17.7845625-11.9120625-28.582875-11.9120625-22.3306875 0-40.5 18.1693125-40.5 40.5s18.1693125 40.5 40.5 40.5c18.073125 0 33.6706875-11.6285625 38.81925-28.9321875.799875-2.6780625-.729-5.497875-3.4070625-6.29775-2.673-.799875-5.497875.7340625-6.2926875 3.412125-3.86775 12.970125-15.562125 21.6928125-29.1195 21.6928125-16.7518125 0-30.375-13.6231875-30.375-30.375s13.6231875-30.375 30.375-30.375c8.1 0 15.7696875 3.290625 21.44475 8.9353125l1.03275 1.3719375-11.1121875 11.1121875c-2.1515625 2.1515625-1.4326875 3.8930625 1.609875 3.8930625h24.7708125c1.5238125 0 2.754-1.2301875 2.754-2.754v-24.7708125c0-3.0425625-1.7415-3.7614375-3.8930625-1.6149375z" fill="#f5f4f5" fill-rule="evenodd" transform="matrix(.98768834 -.15643447 -.15643447 -.98768834 6.990653 88.824662)"/></svg>