<?xml version="1.0" encoding="UTF-8"?>
<svg width="189px" height="34px" viewBox="0 0 189 34" version="1.1" xmlns="http://www.w3.org/2000/svg" xmlns:xlink="http://www.w3.org/1999/xlink">
    <!-- Generator: Sketch 48.2 (47327) - http://www.bohemiancoding.com/sketch -->
    <title>Group 2</title>
    <desc>Created with Sketch.</desc>
    <defs></defs>
    <g id="Artboard-Copy-2" stroke="none" stroke-width="1" fill="none" fill-rule="evenodd" transform="translate(-100.000000, -50.000000)">
        <g id="Group-2" transform="translate(100.000000, 50.000000)" fill="#9859E1">
            <path d="M124.365875,2.6435 C125.269,1.7425 126,2.04425 126,3.321375 L126,13.719 C126,14.358625 125.483625,14.875 124.844,14.875 L114.446375,14.875 C113.16925,14.875 112.8675,14.144 113.770625,13.240875 L118.435,8.5765 L118.0015,8.000625 C115.619375,5.63125 112.4,4.25 109,4.25 C101.968375,4.25 96.25,9.968375 96.25,17 C96.25,24.031625 101.968375,29.75 109,29.75 C114.69075,29.75 119.5995,26.088625 121.223,20.644375 C121.556625,19.52025 122.742375,18.876375 123.864375,19.212125 C124.9885,19.547875 125.63025,20.7315 125.2945,21.855625 C123.133375,29.118875 116.58625,34 109,34 C99.626625,34 92,26.373375 92,17 C92,7.626625 99.626625,0 109,0 C113.532625,0 117.82725,1.842375 120.99775,5.000125 C121.17625,5.18075 121.335625,5.361375 121.478,5.5335 L124.365875,2.6435 Z M0,12.4045954 L3.17896389,12.4045954 L3.17896389,13.7082917 C3.76295425,13.0589378 4.28100245,12.6143868 4.73312402,12.3746254 C5.19466479,12.1248739 5.74097016,12 6.37205651,12 C7.21036526,12 8.08633766,12.2897074 9,12.8691309 L7.54474097,15.956044 C6.94191221,15.4965012 6.35322108,15.2667333 5.77864992,15.2667333 C4.04551724,15.2667333 3.17896389,16.6553308 3.17896389,19.4325674 L3.17896389,27 L0,27 L0,12.4045954 Z M23.866242,20.2653061 L13.492569,20.2653061 C13.5817414,21.4314927 13.9681494,22.359569 14.6518047,23.0495627 C15.3354599,23.7298382 16.2123089,24.0699708 17.2823779,24.0699708 C18.1146538,24.0699708 18.8032528,23.8756093 19.3481953,23.4868805 C19.8832299,23.0981516 20.4925656,22.379014 21.1762208,21.3294461 L24,22.8746356 C23.5640459,23.6035022 23.1033287,24.2278886 22.6178344,24.7478134 C22.1323401,25.2677383 21.6121755,25.6953336 21.0573248,26.0306122 C20.5024742,26.3658909 19.9030464,26.6112723 19.2590234,26.7667638 C18.6150003,26.9222554 17.9164935,27 17.163482,27 C15.0035278,27 13.2696456,26.3197347 11.9617834,24.9591837 C10.6539213,23.5889144 10,21.7716343 10,19.5072886 C10,17.2623794 10.6341055,15.4450993 11.9023355,14.0553936 C13.1804735,12.6851243 14.8747241,12 16.985138,12 C19.115368,12 20.7997107,12.6656882 22.0382166,13.9970845 C23.2668144,15.3187627 23.881104,17.15062 23.881104,19.4927114 L23.866242,20.2653061 Z M20,18 C19.5840687,15.99999 18.579654,15 16.9867257,15 C16.623892,15 16.2831874,15.0694437 15.9646018,15.2083333 C15.6460161,15.3472229 15.356196,15.5472209 15.0951327,15.8083333 C14.8340695,16.0694457 14.6106204,16.3833315 14.4247788,16.75 C14.2389371,17.1166685 14.0973456,17.533331 14,18 L20,18 Z M29.4428312,15.3146853 L29.4428312,26 L26.1615245,26 L26.1615245,15.3146853 L25,15.3146853 L25,12.3776224 L26.1615245,12.3776224 L26.1615245,7.11888112 C26.1615245,5.40325483 26.4712613,4.19114573 27.0907441,3.48251748 C27.942533,2.49416755 29.1814801,2 30.8076225,2 C31.3883877,2 32.1191728,2.16316853 33,2.48951049 L33,5.70629371 L32.6660617,5.53846154 C31.9594641,5.19347147 31.3787077,5.02097902 30.923775,5.02097902 C30.3430098,5.02097902 29.9509992,5.22144322 29.7477314,5.62237762 C29.5444636,6.01398797 29.4428312,6.76922517 29.4428312,7.88811189 L29.4428312,12.3776224 L33,12.3776224 L33,15.3146853 L29.4428312,15.3146853 Z M35,12.4045954 L38.1789639,12.4045954 L38.1789639,13.7082917 C38.7629543,13.0589378 39.2810024,12.6143868 39.733124,12.3746254 C40.1946648,12.1248739 40.7409702,12 41.3720565,12 C42.2103653,12 43.0863377,12.2897074 44,12.8691309 L42.544741,15.956044 C41.9419122,15.4965012 41.3532211,15.2667333 40.7786499,15.2667333 C39.0455172,15.2667333 38.1789639,16.6553308 38.1789639,19.4325674 L38.1789639,27 L35,27 L35,12.4045954 Z M58.866242,20.2653061 L48.492569,20.2653061 C48.5817414,21.4314927 48.9681494,22.359569 49.6518047,23.0495627 C50.3354599,23.7298382 51.2123089,24.0699708 52.2823779,24.0699708 C53.1146538,24.0699708 53.8032528,23.8756093 54.3481953,23.4868805 C54.8832299,23.0981516 55.4925656,22.379014 56.1762208,21.3294461 L59,22.8746356 C58.5640459,23.6035022 58.1033287,24.2278886 57.6178344,24.7478134 C57.1323401,25.2677383 56.6121755,25.6953336 56.0573248,26.0306122 C55.5024742,26.3658909 54.9030464,26.6112723 54.2590234,26.7667638 C53.6150003,26.9222554 52.9164935,27 52.163482,27 C50.0035278,27 48.2696456,26.3197347 46.9617834,24.9591837 C45.6539213,23.5889144 45,21.7716343 45,19.5072886 C45,17.2623794 45.6341055,15.4450993 46.9023355,14.0553936 C48.1804735,12.6851243 49.8747241,12 51.985138,12 C54.115368,12 55.7997107,12.6656882 57.0382166,13.9970845 C58.2668144,15.3187627 58.881104,17.15062 58.881104,19.4927114 L58.866242,20.2653061 Z M55,18 C54.5840687,15.99999 53.579654,15 51.9867257,15 C51.623892,15 51.2831874,15.0694437 50.9646018,15.2083333 C50.6460161,15.3472229 50.356196,15.5472209 50.0951327,15.8083333 C49.8340695,16.0694457 49.6106204,16.3833315 49.4247788,16.75 C49.2389371,17.1166685 49.0973456,17.533331 49,18 L55,18 Z M70.0935252,14.8134111 L67.4172662,16.2565598 C66.9952017,15.3819198 66.4724252,14.9446064 65.8489209,14.9446064 C65.5515573,14.9446064 65.2973632,15.0442167 65.0863309,15.2434402 C64.8752987,15.4426638 64.7697842,15.6977633 64.7697842,16.0087464 C64.7697842,16.5529668 65.3932791,17.09232 66.6402878,17.6268222 C68.3573227,18.3751252 69.5131865,19.0651086 70.1079137,19.696793 C70.7026409,20.3284774 71,21.178809 71,22.2478134 C71,23.6180827 70.501204,24.7648156 69.5035971,25.6880466 C68.5347673,26.5626866 67.3645153,27 65.9928058,27 C63.6426741,27 61.9784222,25.8386899 61,23.516035 L63.7625899,22.2186589 C64.1462849,22.8989344 64.4388479,23.3313888 64.6402878,23.516035 C65.0335751,23.8853274 65.5035944,24.0699708 66.0503597,24.0699708 C67.1438904,24.0699708 67.6906475,23.5646309 67.6906475,22.5539359 C67.6906475,21.9708426 67.2685894,21.4266303 66.4244604,20.9212828 C66.0983197,20.756073 65.7721839,20.5957248 65.4460432,20.4402332 C65.1199024,20.2847417 64.7889705,20.1243934 64.4532374,19.9591837 C63.5131847,19.492709 62.8513209,19.0262414 62.4676259,18.5597668 C61.9784148,17.9669552 61.7338129,17.2040863 61.7338129,16.271137 C61.7338129,15.0369229 62.151075,14.0165249 62.9856115,13.2099125 C63.8393328,12.4033001 64.8752937,12 66.0935252,12 C67.8872991,12 69.2206191,12.9377943 70.0935252,14.8134111 L70.0935252,14.8134111 Z M74,3 L77.221957,3 L77.221957,13.83955 C78.3675475,12.8590833 79.6324513,12.3688573 81.0167064,12.3688573 C82.5918933,12.3688573 83.8520239,12.8545442 84.797136,13.8259325 C85.5990494,14.6702233 86,16.0183448 86,17.8703375 L86,26 L82.778043,26 L82.778043,18.1563055 C82.778043,17.0941332 82.5799542,16.3247508 82.1837709,15.848135 C81.7875875,15.3715192 81.1503624,15.1332149 80.2720764,15.1332149 C79.1455791,15.1332149 78.3532242,15.4645714 77.8949881,16.1272943 C77.4462985,16.7990955 77.221957,17.9520345 77.221957,19.5861456 L77.221957,26 L74,26 L74,3 Z" id="Refresh_1-Copy"></path>
            <path d="M146.06422,13.2889908 L146.06422,17.4036697 C145.357795,16.5412801 144.724773,15.9495429 144.165138,15.6284404 C143.614676,15.2981635 142.967894,15.1330275 142.224771,15.1330275 C141.059627,15.1330275 140.091747,15.5412803 139.321101,16.3577982 C138.550455,17.174316 138.165138,18.1972416 138.165138,19.4266055 C138.165138,20.6834925 138.536694,21.7155923 139.279817,22.5229358 C140.032114,23.3302793 140.99082,23.733945 142.155963,23.733945 C142.899086,23.733945 143.555043,23.5733961 144.123853,23.2522936 C144.674315,22.9403654 145.321097,22.3348669 146.06422,21.4357798 L146.06422,25.5229358 C144.807333,26.1743152 143.550465,26.5 142.293578,26.5 C140.220173,26.5 138.486246,25.8302819 137.091743,24.4908257 C135.697241,23.1421951 135,21.4678999 135,19.4678899 C135,17.4678799 135.706415,15.7798234 137.119266,14.4036697 C138.532117,13.0275161 140.266045,12.3394495 142.321101,12.3394495 C143.642208,12.3394495 144.889902,12.6559601 146.06422,13.2889908 Z M148.431193,19.3165138 C148.431193,17.3807243 149.123846,15.7339517 150.509174,14.3761468 C151.894502,13.0183418 153.582559,12.3394495 155.573394,12.3394495 C157.573404,12.3394495 159.270635,13.0229289 160.665138,14.3899083 C162.041291,15.7568876 162.729358,17.4357699 162.729358,19.4266055 C162.729358,21.4357899 162.036704,23.1192593 160.651376,24.4770642 C159.256874,25.8256948 157.545882,26.5 155.518349,26.5 C153.509164,26.5 151.825695,25.8119335 150.46789,24.4357798 C149.110085,23.0779749 148.431193,21.3715699 148.431193,19.3165138 Z M151.59633,19.3715596 C151.59633,20.7110159 151.954125,21.7706383 152.669725,22.5504587 C153.403673,23.3394535 154.371554,23.733945 155.573394,23.733945 C156.78441,23.733945 157.75229,23.3440406 158.477064,22.5642202 C159.201838,21.7843998 159.56422,20.7431258 159.56422,19.440367 C159.56422,18.1376082 159.201838,17.0963342 158.477064,16.3165138 C157.743116,15.527519 156.775235,15.1330275 155.573394,15.1330275 C154.389902,15.1330275 153.431196,15.527519 152.697248,16.3165138 C151.963299,17.1055085 151.59633,18.123847 151.59633,19.3715596 Z M166.004587,12.7110092 L169.114679,12.7110092 L169.114679,13.9495413 C170.197253,12.8761414 171.417424,12.3394495 172.775229,12.3394495 C174.33487,12.3394495 175.550454,12.8302703 176.422018,13.8119266 C177.174316,14.6467932 177.550459,16.0091649 177.550459,17.8990826 L177.550459,26.1146789 L174.440367,26.1146789 L174.440367,18.6284404 C174.440367,17.3073328 174.256883,16.3944979 173.889908,15.8899083 C173.532108,15.3761442 172.880739,15.1192661 171.93578,15.1192661 C170.908252,15.1192661 170.178901,15.4587122 169.747706,16.1376147 C169.325686,16.8073428 169.114679,17.9770559 169.114679,19.646789 L169.114679,26.1146789 L166.004587,26.1146789 L166.004587,12.7110092 Z M184.665138,15.6009174 L184.665138,26.1146789 L181.555046,26.1146789 L181.555046,15.6009174 L180.454128,15.6009174 L180.454128,12.7110092 L181.555046,12.7110092 L181.555046,7.53669725 C181.555046,5.84861541 181.848621,4.65596679 182.43578,3.9587156 C183.243123,2.98623367 184.417423,2.5 185.958716,2.5 C186.509177,2.5 187.201831,2.66054885 188.036697,2.98165138 L188.036697,6.14678899 L187.720183,5.98165138 C187.050455,5.64220014 186.500002,5.47247706 186.068807,5.47247706 C185.518346,5.47247706 185.14679,5.6697228 184.954128,6.06422018 C184.761467,6.44954321 184.665138,7.19265505 184.665138,8.29357798 L184.665138,12.7110092 L188.036697,12.7110092 L188.036697,15.6009174 L184.665138,15.6009174 Z" id="conf"></path>
        </g>
    </g>
</svg>
